<!DOCTYPE svg PUBLIC "-//W3C//DTD SVG 20010904//EN" "http://www.w3.org/TR/2001/REC-SVG-20010904/DTD/svg10.dtd">
<svg version="1.0" xmlns="http://www.w3.org/2000/svg" width="800px" height="800px" viewBox="0 0 8000 8000" preserveAspectRatio="xMidYMid meet">
<g id="layer101" fill="#170642" stroke="none">
 <path d="M0 4000 l0 -4000 4000 0 4000 0 0 4000 0 4000 -4000 0 -4000 0 0 -4000z"/>
 </g>
<g id="layer102" fill="#ffffff" stroke="none">
 <path d="M3850 6999 c-446 -28 -920 -176 -1309 -408 -484 -288 -883 -717 -1134 -1217 -208 -414 -309 -846 -309 -1319 -1 -466 91 -877 287 -1284 238 -492 585 -888 1044 -1193 151 -100 418 -236 586 -298 752 -279 1592 -241 2310 104 318 153 575 336 827 592 296 300 496 607 652 1002 134 339 198 681 198 1067 1 469 -91 876 -291 1290 -235 486 -584 884 -1040 1187 -151 100 -418 236 -586 298 -279 104 -550 160 -860 180 -175 11 -191 11 -375 -1z m401 -299 c57 -6 137 -15 177 -22 l72 -11 0 -297 c0 -163 -2 -299 -5 -302 -3 -2 -49 4 -102 14 -197 37 -555 34 -729 -7 -29 -7 -56 -10 -59 -7 -3 3 -5 139 -5 302 l0 298 78 11 c200 31 400 38 573 21z m124 -934 c278 -62 481 -149 684 -294 629 -447 887 -1245 641 -1983 -138 -417 -448 -779 -840 -983 -170 -88 -281 -127 -490 -172 -123 -27 -517 -27 -640 0 -209 45 -320 84 -490 172 -431 225 -761 640 -879 1109 -50 200 -68 479 -41 665 113 792 733 1405 1520 1504 82 10 466 -3 535 -18z m-2098 -171 c136 -81 249 -148 251 -150 2 -2 -29 -43 -68 -92 -150 -184 -283 -415 -347 -600 -15 -46 -32 -83 -36 -83 -16 0 -517 292 -517 301 0 21 75 190 135 307 103 197 295 477 322 467 7 -2 124 -70 260 -150z m3880 72 c102 -136 180 -259 248 -389 60 -117 135 -286 135 -307 0 -9 -501 -301 -517 -301 -5 0 -17 26 -27 58 -42 133 -168 377 -259 502 -22 30 -69 90 -105 133 -35 43 -63 80 -61 82 8 7 514 305 519 305 3 0 33 -37 67 -83z m-4053 -2294 c42 -134 168 -378 259 -503 22 -30 70 -90 105 -133 52 -62 62 -81 51 -88 -8 -5 -126 -75 -262 -155 -236 -139 -249 -145 -263 -128 -129 165 -240 337 -317 491 -58 114 -119 261 -115 274 4 11 497 298 514 299 6 0 18 -26 28 -57z m4182 -89 c140 -80 254 -150 254 -155 0 -17 -68 -176 -117 -272 -76 -153 -225 -383 -313 -485 l-20 -24 -247 146 c-137 80 -254 150 -262 155 -10 7 3 29 59 97 150 185 283 415 347 601 15 46 32 83 36 83 5 0 123 -66 263 -146z m-2296 -1290 c177 -6 249 -1 468 32 l42 7 0 -300 0 -300 -72 -11 c-264 -41 -492 -41 -755 0 l-73 11 0 297 c0 163 2 299 5 302 3 2 49 -4 102 -14 61 -12 168 -21 283 -24z"/>
 <path d="M3213 4917 c-51 -51 -93 -101 -93 -111 0 -10 40 -60 89 -110 l89 -91 -35 -40 c-122 -140 -243 -342 -243 -407 0 -23 12 -37 68 -77 37 -28 90 -63 118 -78 50 -26 52 -26 78 -9 15 9 42 38 59 63 49 71 224 279 300 356 127 129 235 155 320 78 97 -87 84 -155 -74 -391 -153 -229 -206 -421 -163 -585 21 -84 56 -138 143 -225 142 -141 296 -194 463 -159 64 13 198 75 253 116 l40 31 101 -99 c56 -55 107 -99 114 -99 17 0 198 178 206 203 5 14 -17 42 -91 118 l-98 99 45 52 c96 113 198 287 198 339 0 15 -11 36 -27 51 -46 42 -184 128 -207 128 -23 0 -55 -31 -121 -115 -83 -106 -248 -285 -298 -323 -55 -42 -103 -62 -147 -62 -39 0 -114 52 -133 93 -25 53 -21 87 20 153 221 356 264 442 285 564 26 151 -23 280 -157 416 -185 188 -399 224 -643 109 -41 -19 -87 -44 -103 -56 l-30 -21 -94 91 c-62 60 -102 91 -116 91 -15 0 -54 -31 -116 -93z"/>
 </g>

</svg>