<svg id="svg" version="1.1" width="400" height="400" viewBox="0 0 400 400" xmlns="http://www.w3.org/2000/svg" xmlns:xlink="http://www.w3.org/1999/xlink" ><g id="svgg"><path id="path0" d="M0.000 200.000 L 0.000 400.000 200.000 400.000 L 400.000 400.000 400.000 200.000 L 400.000 0.000 200.000 0.000 L 0.000 0.000 0.000 200.000 M295.600 133.736 C 300.343 134.899,305.673 136.485,306.783 137.064 C 307.342 137.356,308.005 137.596,308.257 137.598 C 309.188 137.603,316.326 141.379,320.082 143.855 C 325.353 147.329,331.018 152.373,333.947 156.200 C 334.789 157.300,335.870 158.650,336.349 159.200 C 339.951 163.338,345.461 174.388,346.821 180.200 C 347.027 181.080,347.458 182.700,347.778 183.800 C 350.204 192.116,350.106 206.293,347.565 214.800 C 347.138 216.230,346.791 217.667,346.794 217.992 C 346.810 219.570,341.226 231.988,339.762 233.631 C 339.453 233.979,339.200 234.446,339.200 234.670 C 339.200 234.893,338.840 235.402,338.400 235.800 C 337.960 236.198,337.600 236.690,337.600 236.893 C 337.600 237.097,336.544 238.554,335.252 240.131 C 327.911 249.101,319.641 255.374,309.200 259.891 C 305.703 261.404,302.977 262.400,302.334 262.400 C 301.977 262.400,300.540 262.738,299.142 263.151 C 291.862 265.301,297.583 265.219,155.423 265.218 C 49.797 265.218,24.152 265.118,23.763 264.709 C 21.178 261.985,23.878 260.194,31.800 259.376 C 33.120 259.240,34.830 258.971,35.600 258.778 C 36.370 258.585,38.703 258.235,40.785 258.000 C 42.867 257.765,45.477 257.323,46.585 257.018 C 47.693 256.713,49.498 256.341,50.595 256.193 C 51.692 256.044,53.042 255.694,53.595 255.415 C 54.148 255.135,55.267 254.786,56.083 254.639 C 56.899 254.491,58.069 254.108,58.683 253.788 C 59.297 253.467,60.016 253.204,60.281 253.202 C 60.931 253.199,66.519 250.236,68.557 248.813 C 72.250 246.236,79.600 237.816,79.600 236.162 C 79.600 236.064,80.320 234.461,81.200 232.600 C 82.080 230.739,82.800 228.981,82.800 228.694 C 82.800 228.407,83.160 227.148,83.600 225.896 C 84.539 223.226,84.633 219.831,83.828 217.708 C 83.308 216.337,82.402 212.283,81.568 207.600 C 81.144 205.219,81.156 192.289,81.584 190.000 C 83.083 181.987,84.421 176.962,85.467 175.411 C 85.760 174.977,86.000 174.376,86.000 174.076 C 86.000 173.775,86.817 171.880,87.816 169.865 C 93.907 157.576,101.631 149.218,113.823 141.723 C 115.443 140.727,121.892 137.600,122.325 137.600 C 122.575 137.600,123.548 137.264,124.489 136.853 C 127.806 135.404,134.933 133.626,139.600 133.083 C 145.216 132.429,292.790 133.047,295.600 133.736 M272.513 175.991 C 260.221 178.692,249.908 193.701,253.629 203.474 C 253.865 204.093,254.226 205.487,254.432 206.572 C 254.638 207.657,255.054 208.827,255.356 209.172 C 255.658 209.517,256.042 210.250,256.210 210.800 C 257.147 213.877,266.219 222.000,268.718 222.000 C 268.926 222.000,270.244 222.373,271.648 222.829 C 274.462 223.743,281.764 223.814,282.848 222.938 C 283.152 222.693,284.030 222.362,284.800 222.203 C 285.570 222.044,286.761 221.573,287.447 221.157 C 288.133 220.741,288.954 220.400,289.272 220.400 C 290.834 220.400,296.724 213.978,299.159 209.620 C 301.016 206.296,302.044 198.592,301.042 195.514 C 300.734 194.571,300.373 193.160,300.238 192.378 C 298.452 182.011,283.998 173.468,272.513 175.991 M143.000 176.754 C 138.438 178.316,134.738 180.508,131.781 183.400 C 129.946 185.194,126.400 190.699,126.400 191.753 C 126.400 192.131,126.089 193.016,125.710 193.720 C 122.008 200.586,128.404 217.028,136.172 220.617 C 136.847 220.929,137.670 221.347,138.000 221.547 C 141.142 223.446,142.863 223.800,148.968 223.800 L 155.000 223.799 158.600 222.049 C 162.599 220.104,162.692 220.037,166.231 216.476 C 169.622 213.064,171.756 208.727,172.436 203.866 C 174.121 191.825,168.178 182.123,156.126 177.240 C 154.008 176.382,145.054 176.050,143.000 176.754 M206.600 177.254 C 194.604 182.222,189.393 190.299,190.170 202.722 C 190.675 210.793,195.769 217.995,203.800 221.992 L 207.400 223.783 213.818 223.792 C 219.031 223.798,220.419 223.680,221.218 223.161 C 221.758 222.809,222.875 222.300,223.700 222.030 C 224.525 221.759,225.200 221.391,225.200 221.212 C 225.200 221.033,225.625 220.780,226.144 220.650 C 227.667 220.268,232.563 215.440,234.194 212.713 C 239.631 203.623,238.694 193.043,231.672 184.236 C 229.984 182.119,224.122 178.022,222.729 177.986 C 222.438 177.979,221.480 177.625,220.600 177.200 C 218.200 176.041,209.448 176.075,206.600 177.254 " stroke="none" fill="#808080" fill-rule="evenodd"></path><path id="path1" d="M139.600 133.083 C 134.933 133.626,127.806 135.404,124.489 136.853 C 123.548 137.264,122.575 137.600,122.325 137.600 C 121.892 137.600,115.443 140.727,113.823 141.723 C 101.631 149.218,93.907 157.576,87.816 169.865 C 86.817 171.880,86.000 173.775,86.000 174.076 C 86.000 174.376,85.760 174.977,85.467 175.411 C 84.421 176.962,83.083 181.987,81.584 190.000 C 81.156 192.289,81.144 205.219,81.568 207.600 C 82.402 212.283,83.308 216.337,83.828 217.708 C 84.633 219.831,84.539 223.226,83.600 225.896 C 83.160 227.148,82.800 228.407,82.800 228.694 C 82.800 228.981,82.080 230.739,81.200 232.600 C 80.320 234.461,79.600 236.064,79.600 236.162 C 79.600 237.816,72.250 246.236,68.557 248.813 C 66.519 250.236,60.931 253.199,60.281 253.202 C 60.016 253.204,59.297 253.467,58.683 253.788 C 58.069 254.108,56.899 254.491,56.083 254.639 C 55.267 254.786,54.148 255.135,53.595 255.415 C 53.042 255.694,51.692 256.044,50.595 256.193 C 49.498 256.341,47.693 256.713,46.585 257.018 C 45.477 257.323,42.867 257.765,40.785 258.000 C 38.703 258.235,36.370 258.585,35.600 258.778 C 34.830 258.971,33.120 259.240,31.800 259.376 C 23.878 260.194,21.178 261.985,23.763 264.709 C 24.152 265.118,49.797 265.218,155.423 265.218 C 297.583 265.219,291.862 265.301,299.142 263.151 C 300.540 262.738,301.977 262.400,302.334 262.400 C 302.977 262.400,305.703 261.404,309.200 259.891 C 319.641 255.374,327.911 249.101,335.252 240.131 C 336.544 238.554,337.600 237.097,337.600 236.893 C 337.600 236.690,337.960 236.198,338.400 235.800 C 338.840 235.402,339.200 234.893,339.200 234.670 C 339.200 234.446,339.453 233.979,339.762 233.631 C 341.226 231.988,346.810 219.570,346.794 217.992 C 346.791 217.667,347.138 216.230,347.565 214.800 C 350.106 206.293,350.204 192.116,347.778 183.800 C 347.458 182.700,347.027 181.080,346.821 180.200 C 345.461 174.388,339.951 163.338,336.349 159.200 C 335.870 158.650,334.789 157.300,333.947 156.200 C 331.018 152.373,325.353 147.329,320.082 143.855 C 316.326 141.379,309.188 137.603,308.257 137.598 C 308.005 137.596,307.342 137.356,306.783 137.064 C 305.673 136.485,300.343 134.899,295.600 133.736 C 292.790 133.047,145.216 132.429,139.600 133.083 M282.200 175.998 C 290.161 177.572,299.083 185.673,300.238 192.378 C 300.373 193.160,300.734 194.571,301.042 195.514 C 302.044 198.592,301.016 206.296,299.159 209.620 C 296.724 213.978,290.834 220.400,289.272 220.400 C 288.954 220.400,288.133 220.741,287.447 221.157 C 286.761 221.573,285.570 222.044,284.800 222.203 C 284.030 222.362,283.152 222.693,282.848 222.938 C 281.764 223.814,274.462 223.743,271.648 222.829 C 270.244 222.373,268.926 222.000,268.718 222.000 C 266.219 222.000,257.147 213.877,256.210 210.800 C 256.042 210.250,255.658 209.517,255.356 209.172 C 255.054 208.827,254.638 207.657,254.432 206.572 C 254.226 205.487,253.865 204.093,253.629 203.474 C 252.604 200.782,253.467 193.939,255.329 190.000 C 260.398 179.275,270.954 173.774,282.200 175.998 M156.126 177.240 C 168.178 182.123,174.121 191.825,172.436 203.866 C 171.756 208.727,169.622 213.064,166.231 216.476 C 162.692 220.037,162.599 220.104,158.600 222.049 L 155.000 223.799 148.968 223.800 C 142.863 223.800,141.142 223.446,138.000 221.547 C 137.670 221.347,136.847 220.929,136.172 220.617 C 132.726 219.025,128.028 213.023,125.982 207.600 C 124.712 204.233,124.548 195.875,125.710 193.720 C 126.089 193.016,126.400 192.131,126.400 191.753 C 126.400 190.699,129.946 185.194,131.781 183.400 C 134.738 180.508,138.438 178.316,143.000 176.754 C 145.054 176.050,154.008 176.382,156.126 177.240 M220.600 177.200 C 221.480 177.625,222.438 177.979,222.729 177.986 C 223.478 178.006,226.666 179.886,228.872 181.610 C 237.979 188.725,240.329 202.456,234.194 212.713 C 232.563 215.440,227.667 220.268,226.144 220.650 C 225.625 220.780,225.200 221.033,225.200 221.212 C 225.200 221.391,224.525 221.759,223.700 222.030 C 222.875 222.300,221.758 222.809,221.218 223.161 C 220.419 223.680,219.031 223.798,213.818 223.792 L 207.400 223.783 203.800 221.992 C 188.433 214.344,185.117 195.015,197.144 183.197 C 200.081 180.310,201.743 179.266,206.600 177.254 C 209.448 176.075,218.200 176.041,220.600 177.200 " stroke="none" fill="#ffffff" fill-rule="evenodd"></path></g></svg>