<svg xmlns="http://www.w3.org/2000/svg" viewBox="0 0 290.04 290.04"><defs><style>.cls-1{fill:gray;}.cls-2{fill:#fff;fill-rule:evenodd;}</style></defs><g id="Layer_2" data-name="Layer 2"><g id="svg"><rect class="cls-1" width="290.04" height="290.04"/><path id="path1" class="cls-2" d="M113.17,99.93a45.82,45.82,0,0,0-10.34,2.58,6.86,6.86,0,0,1-1.48.51,52.29,52.29,0,0,0-5.81,2.82C87.2,111,81.92,116.68,77.75,125.08A18.62,18.62,0,0,0,76.51,128a2.16,2.16,0,0,1-.37.92c-.71,1.06-1.63,4.49-2.65,10a83.41,83.41,0,0,0,0,12A56.48,56.48,0,0,0,75,157.8a9.06,9.06,0,0,1-.15,5.6,11.59,11.59,0,0,0-.55,1.92A16.94,16.94,0,0,1,73.23,168c-.61,1.27-1.1,2.37-1.1,2.43,0,1.14-5,6.89-7.55,8.66a32.51,32.51,0,0,1-5.66,3,3.52,3.52,0,0,0-1.09.4,7.44,7.44,0,0,1-1.78.58,7.41,7.41,0,0,0-1.7.53,8.21,8.21,0,0,1-2.06.53,24.73,24.73,0,0,0-2.74.57,33.28,33.28,0,0,1-4,.67c-1.43.16-3,.4-3.55.53a23.54,23.54,0,0,1-2.6.41q-8.13.84-5.5,3.65c.27.28,17.81.35,90.05.35,97.22,0,93.31,0,98.29-1.42a13.87,13.87,0,0,1,2.18-.51,24.4,24.4,0,0,0,4.69-1.72A45.7,45.7,0,0,0,247,173.14a13.75,13.75,0,0,0,1.61-2.22,1.69,1.69,0,0,1,.54-.74,1.68,1.68,0,0,0,.55-.78,1.45,1.45,0,0,1,.39-.71c1-1.12,4.82-9.61,4.8-10.69a15.25,15.25,0,0,1,.53-2.19c1.74-5.81,1.81-15.51.15-21.2-.22-.75-.52-1.86-.66-2.46-.93-4-4.7-11.53-7.16-14.36-.33-.38-1.07-1.3-1.64-2.05a43,43,0,0,0-9.48-8.44c-2.57-1.7-7.45-4.28-8.09-4.28a3.25,3.25,0,0,1-1-.37,61.79,61.79,0,0,0-7.65-2.27c-1.92-.48-102.84-.9-106.68-.45m97.52,29.35c5.44,1.07,11.55,6.62,12.34,11.2a18.26,18.26,0,0,0,.54,2.15c.69,2.1,0,7.37-1.28,9.64-1.67,3-5.7,7.37-6.76,7.37a3.66,3.66,0,0,0-1.25.52,6.84,6.84,0,0,1-1.81.72,4,4,0,0,0-1.34.5c-.74.6-5.73.55-7.66-.07a15.65,15.65,0,0,0-2-.57c-1.71,0-7.91-5.56-8.56-7.66a3.33,3.33,0,0,0-.58-1.11,5,5,0,0,1-.63-1.78,15.88,15.88,0,0,0-.55-2.12c-.7-1.84-.11-6.52,1.16-9.22,3.47-7.33,10.69-11.09,18.38-9.57m-86.22.85c8.24,3.34,12.3,10,11.15,18.21a15,15,0,0,1-4.24,8.62c-2.42,2.44-2.49,2.48-5.22,3.81L123.7,162h-4.13c-4.17,0-5.35-.24-7.5-1.54-.22-.14-.79-.42-1.25-.64-2.36-1.09-5.57-5.19-7-8.9-.87-2.3-1-8-.18-9.49a3.87,3.87,0,0,0,.47-1.35c0-.72,2.42-4.48,3.68-5.71a19.81,19.81,0,0,1,7.67-4.54c1.41-.49,7.53-.26,9,.33m44.09,0a6.21,6.21,0,0,0,1.46.54,15.2,15.2,0,0,1,4.2,2.48c6.23,4.86,7.83,14.25,3.64,21.27-1.12,1.86-4.47,5.16-5.51,5.43-.35.08-.64.26-.64.38s-.46.37-1,.56a8.72,8.72,0,0,0-1.7.77c-.54.36-1.49.44-5.06.43h-4.39l-2.46-1.23c-10.51-5.23-12.78-18.45-4.55-26.53a16.21,16.21,0,0,1,6.47-4.06c1.94-.81,7.93-.83,9.57,0"/></g></g></svg>