<svg id="svg" version="1.1" width="400" height="400" viewBox="0 0 400 400" xmlns="http://www.w3.org/2000/svg" xmlns:xlink="http://www.w3.org/1999/xlink" ><g id="svgg"><path id="path0" d="M0.000 200.000 L 0.000 400.000 200.000 400.000 L 400.000 400.000 400.000 200.000 L 400.000 0.000 200.000 0.000 L 0.000 0.000 0.000 200.000 M225.245 60.406 C 239.266 63.049,246.289 80.946,239.164 95.875 C 231.566 111.795,202.770 111.834,195.424 95.934 C 188.333 80.587,195.417 62.775,209.600 60.285 C 211.648 59.925,223.168 60.015,225.245 60.406 M318.557 85.833 C 318.691 86.181,318.800 95.264,318.800 106.019 C 318.800 124.941,318.825 125.585,319.574 125.986 C 320.076 126.255,327.087 126.400,339.579 126.400 L 358.811 126.400 358.705 139.900 L 358.600 153.400 338.691 153.600 L 318.783 153.800 318.801 188.800 C 318.823 228.876,318.932 230.351,322.184 234.614 C 326.851 240.733,340.214 241.578,355.511 236.721 C 359.178 235.557,358.568 234.689,362.028 246.000 C 362.734 248.310,363.932 252.145,364.690 254.522 C 366.405 259.902,366.625 259.491,360.735 261.913 C 352.661 265.233,347.253 266.850,337.070 268.993 C 331.384 270.189,320.687 270.643,313.769 269.983 C 292.023 267.906,282.000 259.276,278.485 239.600 C 277.975 236.745,277.856 229.720,277.738 195.800 C 277.661 173.580,277.505 154.998,277.393 154.507 C 277.189 153.615,277.171 153.614,267.094 153.507 L 257.000 153.400 256.894 141.427 C 256.779 128.400,256.706 128.817,259.085 128.806 C 259.791 128.803,261.880 128.448,263.726 128.017 C 278.894 124.480,287.230 115.249,290.827 98.000 C 291.561 94.483,292.386 89.384,292.393 88.326 C 292.397 87.735,292.576 86.790,292.790 86.226 L 293.180 85.200 305.747 85.200 C 316.838 85.200,318.343 85.274,318.557 85.833 M100.400 129.393 C 108.120 129.980,112.974 130.603,113.746 131.105 C 113.996 131.267,126.620 131.490,141.800 131.600 L 169.400 131.800 169.506 143.281 L 169.612 154.761 168.306 154.986 C 167.588 155.110,164.300 155.402,161.000 155.635 C 150.184 156.400,145.802 156.723,145.700 156.762 C 145.353 156.895,145.821 157.821,147.461 160.247 C 160.147 179.019,156.222 205.177,138.600 219.299 C 125.230 230.013,101.503 234.326,79.800 229.988 C 77.820 229.592,76.075 229.388,75.923 229.534 C 75.623 229.821,72.208 235.212,69.346 239.916 C 67.123 243.570,66.982 243.426,73.085 243.729 C 82.136 244.179,97.607 245.149,109.600 246.018 C 139.044 248.153,151.896 251.900,160.074 260.733 C 167.222 268.454,169.818 283.295,166.388 296.827 C 161.221 317.205,141.861 329.622,109.600 333.248 C 103.724 333.908,80.195 333.900,74.400 333.236 C 39.423 329.226,26.200 320.108,26.200 300.000 C 26.200 289.830,28.732 284.382,37.487 275.712 C 40.503 272.726,40.496 272.774,38.061 271.275 C 28.548 265.422,26.114 254.334,32.080 244.027 C 32.932 242.554,36.691 238.474,43.184 231.973 L 53.000 222.146 49.647 219.973 C 37.011 211.786,30.402 198.538,30.403 181.400 C 30.405 148.630,52.292 129.841,91.600 128.865 C 92.370 128.846,96.330 129.083,100.400 129.393 M241.200 187.135 L 241.400 244.871 242.257 245.565 C 242.772 245.981,244.528 246.456,246.657 246.753 C 248.606 247.025,251.550 247.435,253.200 247.664 C 254.850 247.893,256.830 248.204,257.600 248.355 L 259.000 248.630 259.000 259.215 L 259.000 269.800 220.700 269.902 L 182.400 270.004 182.400 259.240 L 182.400 248.475 184.500 248.225 C 185.655 248.087,187.680 247.810,189.000 247.610 C 190.320 247.409,192.826 247.037,194.570 246.782 C 198.791 246.166,199.518 245.789,200.009 243.965 C 200.921 240.580,200.316 159.414,199.370 158.147 C 198.448 156.912,197.701 156.582,188.800 153.478 L 182.600 151.317 182.684 149.158 C 182.835 145.262,184.944 130.338,185.461 129.502 C 185.565 129.333,198.104 129.241,213.325 129.297 L 241.000 129.400 241.200 187.135 M90.000 156.233 C 76.386 157.802,68.792 166.678,68.810 181.000 C 68.826 193.922,75.620 201.121,89.400 202.818 C 107.981 205.106,120.754 193.647,118.804 176.440 C 117.176 162.060,106.207 154.366,90.000 156.233 M63.686 281.500 C 53.226 294.788,57.055 303.692,74.695 307.092 C 79.975 308.110,103.317 308.087,109.000 307.058 C 121.381 304.817,127.258 300.211,127.322 292.696 C 127.380 285.834,122.160 283.592,103.800 282.594 C 99.789 282.376,98.442 282.282,77.915 280.800 C 63.814 279.782,65.088 279.720,63.686 281.500 " stroke="none" fill="#dedede" fill-rule="evenodd"></path><path id="path1" d="M209.600 60.285 C 195.417 62.775,188.333 80.587,195.424 95.934 C 202.770 111.834,231.566 111.795,239.164 95.875 C 246.289 80.946,239.266 63.049,225.245 60.406 C 223.168 60.015,211.648 59.925,209.600 60.285 M292.790 86.226 C 292.576 86.790,292.397 87.735,292.393 88.326 C 292.386 89.384,291.561 94.483,290.827 98.000 C 287.230 115.249,278.894 124.480,263.726 128.017 C 261.880 128.448,259.791 128.803,259.085 128.806 C 256.706 128.817,256.779 128.400,256.894 141.427 L 257.000 153.400 267.094 153.507 C 277.171 153.614,277.189 153.615,277.393 154.507 C 277.505 154.998,277.661 173.580,277.738 195.800 C 277.856 229.720,277.975 236.745,278.485 239.600 C 282.000 259.276,292.023 267.906,313.769 269.983 C 320.687 270.643,331.384 270.189,337.070 268.993 C 347.253 266.850,352.661 265.233,360.735 261.913 C 366.625 259.491,366.405 259.902,364.690 254.522 C 363.932 252.145,362.734 248.310,362.028 246.000 C 358.568 234.689,359.178 235.557,355.511 236.721 C 340.214 241.578,326.851 240.733,322.184 234.614 C 318.932 230.351,318.823 228.876,318.801 188.800 L 318.783 153.800 338.691 153.600 L 358.600 153.400 358.705 139.900 L 358.811 126.400 339.579 126.400 C 327.087 126.400,320.076 126.255,319.574 125.986 C 318.825 125.585,318.800 124.941,318.800 106.019 C 318.800 95.264,318.691 86.181,318.557 85.833 C 318.343 85.274,316.838 85.200,305.747 85.200 L 293.180 85.200 292.790 86.226 M84.400 129.397 C 49.221 132.415,30.405 150.537,30.403 181.400 C 30.402 198.538,37.011 211.786,49.647 219.973 L 53.000 222.146 43.184 231.973 C 36.691 238.474,32.932 242.554,32.080 244.027 C 26.114 254.334,28.548 265.422,38.061 271.275 C 40.496 272.774,40.503 272.726,37.487 275.712 C 28.732 284.382,26.200 289.830,26.200 300.000 C 26.200 318.239,38.716 328.399,65.800 332.146 C 96.845 336.440,128.102 332.927,145.000 323.244 C 161.577 313.744,169.461 298.824,167.613 280.451 C 165.392 258.368,153.463 250.079,119.200 246.811 C 110.813 246.011,87.088 244.425,73.085 243.729 C 66.982 243.426,67.123 243.570,69.346 239.916 C 72.208 235.212,75.623 229.821,75.923 229.534 C 76.075 229.388,77.820 229.592,79.800 229.988 C 101.503 234.326,125.230 230.013,138.600 219.299 C 156.222 205.177,160.147 179.019,147.461 160.247 C 145.821 157.821,145.353 156.895,145.700 156.762 C 145.802 156.723,150.184 156.400,161.000 155.635 C 164.300 155.402,167.588 155.110,168.306 154.986 L 169.612 154.761 169.506 143.281 L 169.400 131.800 141.800 131.600 C 126.620 131.490,113.996 131.267,113.746 131.105 C 112.974 130.603,108.120 129.980,100.400 129.393 C 91.848 128.742,92.033 128.742,84.400 129.397 M185.461 129.502 C 184.944 130.338,182.835 145.262,182.684 149.158 L 182.600 151.317 188.800 153.478 C 197.701 156.582,198.448 156.912,199.370 158.147 C 200.316 159.414,200.921 240.580,200.009 243.965 C 199.518 245.789,198.791 246.166,194.570 246.782 C 192.826 247.037,190.320 247.409,189.000 247.610 C 187.680 247.810,185.655 248.087,184.500 248.225 L 182.400 248.475 182.400 259.240 L 182.400 270.004 220.700 269.902 L 259.000 269.800 259.000 259.215 L 259.000 248.630 257.600 248.355 C 256.830 248.204,254.850 247.893,253.200 247.664 C 251.550 247.435,248.606 247.025,246.657 246.753 C 244.528 246.456,242.772 245.981,242.257 245.565 L 241.400 244.871 241.200 187.135 L 241.000 129.400 213.325 129.297 C 198.104 129.241,185.565 129.333,185.461 129.502 M103.464 157.178 C 122.348 162.487,124.964 190.468,107.463 199.948 C 97.184 205.515,80.430 203.465,73.697 195.815 C 66.499 187.638,67.265 170.735,75.193 162.807 C 81.167 156.833,93.503 154.377,103.464 157.178 M77.915 280.800 C 98.442 282.282,99.789 282.376,103.800 282.594 C 122.160 283.592,127.380 285.834,127.322 292.696 C 127.258 300.211,121.381 304.817,109.000 307.058 C 103.317 308.087,79.975 308.110,74.695 307.092 C 57.055 303.692,53.226 294.788,63.686 281.500 C 65.088 279.720,63.814 279.782,77.915 280.800 " stroke="none" fill="#ffffff" fill-rule="evenodd"></path></g></svg>