<svg id="svg" version="1.1" width="400" height="400" viewBox="0 0 400 400" xmlns="http://www.w3.org/2000/svg" xmlns:xlink="http://www.w3.org/1999/xlink" ><g id="svgg"><path id="path0" d="M142.600 93.060 C 133.378 94.993,123.786 98.405,120.600 100.883 C 120.380 101.055,118.834 102.089,117.164 103.183 C 110.677 107.433,102.862 115.429,99.360 121.400 C 89.514 138.185,89.597 137.498,89.611 202.388 C 89.623 257.456,89.656 258.340,91.976 266.600 C 93.549 272.201,96.520 278.976,98.956 282.518 C 99.530 283.353,100.000 284.171,100.000 284.336 C 100.000 284.650,100.965 286.013,102.000 287.161 C 102.330 287.527,103.131 288.540,103.779 289.413 C 111.915 300.359,126.232 308.554,142.800 311.748 C 146.774 312.514,251.881 312.746,255.000 311.996 C 255.880 311.784,257.746 311.422,259.146 311.191 C 261.781 310.755,267.303 309.246,269.400 308.388 C 275.820 305.762,284.892 300.381,287.852 297.445 C 288.321 296.980,289.999 295.340,291.582 293.800 C 294.163 291.289,298.989 285.254,300.300 282.899 C 300.575 282.404,301.025 281.595,301.300 281.100 C 301.575 280.605,302.004 279.930,302.253 279.600 C 302.503 279.270,303.275 277.650,303.969 276.000 C 304.664 274.350,305.373 272.730,305.546 272.400 C 306.091 271.358,307.884 265.134,308.657 261.600 C 309.808 256.331,309.808 148.469,308.657 143.200 C 307.884 139.666,306.091 133.442,305.546 132.400 C 305.373 132.070,304.660 130.450,303.961 128.800 C 303.261 127.150,302.084 124.852,301.345 123.692 C 300.605 122.533,300.000 121.486,300.000 121.366 C 300.000 119.461,288.376 107.202,283.600 104.070 C 282.390 103.277,281.310 102.530,281.200 102.410 C 280.794 101.969,277.607 100.000,277.298 100.000 C 277.122 100.000,275.903 99.435,274.589 98.744 C 270.402 96.542,265.622 94.913,259.200 93.498 C 254.146 92.385,147.727 91.985,142.600 93.060 M250.400 104.397 C 256.032 104.770,261.275 105.808,263.732 107.035 C 264.355 107.346,265.058 107.600,265.294 107.600 C 265.757 107.600,269.817 109.383,270.800 110.018 C 271.130 110.231,271.850 110.625,272.400 110.894 C 274.693 112.013,282.496 117.933,283.110 119.020 C 283.269 119.302,284.213 120.404,285.207 121.467 C 286.202 122.530,287.321 123.850,287.694 124.400 C 288.068 124.950,288.920 126.171,289.587 127.114 C 290.254 128.057,290.800 128.980,290.800 129.165 C 290.800 129.350,291.052 129.711,291.361 129.967 C 291.669 130.223,292.043 130.920,292.192 131.516 C 292.341 132.112,292.685 132.870,292.957 133.200 C 294.288 134.815,296.519 142.291,297.374 148.000 C 298.344 154.479,298.318 250.587,297.344 256.800 C 296.310 263.397,293.970 270.576,291.605 274.400 C 291.401 274.730,290.747 275.810,290.151 276.800 C 286.345 283.122,278.111 291.048,272.400 293.888 C 271.850 294.161,271.130 294.561,270.800 294.777 C 269.638 295.537,265.715 297.200,265.085 297.200 C 264.734 297.200,264.347 297.362,264.225 297.560 C 264.103 297.758,263.057 298.134,261.901 298.395 C 260.746 298.657,258.990 299.170,258.000 299.536 C 256.354 300.143,251.358 300.200,199.600 300.200 L 143.000 300.200 140.448 299.300 C 139.044 298.805,137.698 298.400,137.456 298.400 C 133.766 298.400,121.970 291.224,116.400 285.590 C 111.687 280.824,107.217 274.487,106.179 271.103 C 106.027 270.606,105.763 270.020,105.592 269.800 C 105.117 269.186,103.406 263.773,102.559 260.200 C 101.379 255.226,101.379 149.574,102.559 144.600 C 103.467 140.772,104.941 136.189,105.784 134.571 C 106.120 133.927,106.396 133.281,106.398 133.136 C 106.402 132.633,109.720 126.992,111.157 125.044 C 114.269 120.824,123.194 112.400,124.552 112.400 C 124.669 112.400,125.381 111.981,126.135 111.470 C 128.647 109.765,135.512 106.756,138.200 106.181 C 138.860 106.040,140.120 105.672,141.000 105.364 C 144.527 104.128,234.382 103.334,250.400 104.397 M261.400 126.560 C 250.081 129.630,245.908 142.623,253.131 152.308 C 258.358 159.315,270.270 159.795,276.768 153.259 C 288.072 141.890,276.839 122.374,261.400 126.560 M189.400 150.608 C 188.300 150.930,186.590 151.362,185.600 151.568 C 184.610 151.774,183.260 152.224,182.600 152.569 C 181.940 152.913,181.180 153.196,180.911 153.198 C 180.427 153.200,177.159 154.572,176.000 155.259 C 175.670 155.455,174.947 155.837,174.394 156.108 C 169.723 158.394,161.911 164.898,158.481 169.355 C 152.803 176.733,150.612 181.266,147.726 191.600 C 146.700 195.274,146.659 210.776,147.667 213.800 C 148.033 214.900,148.445 216.467,148.582 217.283 C 148.718 218.099,149.092 219.269,149.412 219.883 C 149.733 220.497,149.994 221.270,149.993 221.600 C 149.991 222.106,152.104 226.461,154.403 230.691 C 158.320 237.898,167.611 246.351,176.200 250.522 C 181.352 253.024,183.835 253.828,191.200 255.379 C 197.353 256.674,207.361 256.059,214.308 253.958 C 215.688 253.541,217.001 253.200,217.227 253.200 C 217.452 253.200,219.024 252.550,220.718 251.755 C 222.413 250.960,224.160 250.140,224.600 249.934 C 234.631 245.230,244.086 234.650,249.386 222.200 C 253.623 212.247,254.210 195.165,250.584 187.340 C 250.263 186.646,250.000 185.684,250.000 185.201 C 250.000 184.718,249.743 183.846,249.430 183.262 C 249.116 182.678,248.261 180.974,247.530 179.474 C 245.409 175.129,245.227 174.833,242.187 170.818 C 235.286 161.705,224.936 154.506,215.000 151.910 C 214.120 151.680,212.590 151.213,211.600 150.873 C 208.985 149.974,192.247 149.774,189.400 150.608 M206.348 162.032 C 219.432 164.173,230.586 172.231,236.479 183.800 C 238.690 188.139,238.751 188.304,240.470 194.600 C 241.037 196.676,241.037 208.924,240.470 211.000 C 238.784 217.175,238.912 216.821,236.646 221.574 C 233.842 227.456,227.473 234.452,221.800 237.884 C 213.915 242.653,209.650 243.800,199.800 243.800 C 191.234 243.800,191.518 243.847,184.600 241.259 C 177.142 238.468,170.135 232.895,165.687 226.216 C 157.679 214.190,156.128 197.810,161.896 186.158 C 163.359 183.203,164.625 180.875,165.166 180.146 C 165.515 179.677,166.069 178.867,166.397 178.346 C 167.304 176.911,175.580 168.800,176.139 168.800 C 176.263 168.800,176.981 168.381,177.735 167.870 C 185.520 162.587,196.300 160.387,206.348 162.032 " stroke="none" fill="#ffffff" fill-rule="evenodd"></path><path id="path1" d="M0.000 200.000 L 0.000 400.000 200.000 400.000 L 400.000 400.000 400.000 200.000 L 400.000 0.000 200.000 0.000 L 0.000 0.000 0.000 200.000 M259.200 93.498 C 265.622 94.913,270.402 96.542,274.589 98.744 C 275.903 99.435,277.122 100.000,277.298 100.000 C 277.607 100.000,280.794 101.969,281.200 102.410 C 281.310 102.530,282.390 103.277,283.600 104.070 C 288.376 107.202,300.000 119.461,300.000 121.366 C 300.000 121.486,300.605 122.533,301.345 123.692 C 302.084 124.852,303.261 127.150,303.961 128.800 C 304.660 130.450,305.373 132.070,305.546 132.400 C 306.091 133.442,307.884 139.666,308.657 143.200 C 309.808 148.469,309.808 256.331,308.657 261.600 C 307.884 265.134,306.091 271.358,305.546 272.400 C 305.373 272.730,304.664 274.350,303.969 276.000 C 303.275 277.650,302.503 279.270,302.253 279.600 C 302.004 279.930,301.575 280.605,301.300 281.100 C 301.025 281.595,300.575 282.404,300.300 282.899 C 298.989 285.254,294.163 291.289,291.582 293.800 C 289.999 295.340,288.321 296.980,287.852 297.445 C 284.892 300.381,275.820 305.762,269.400 308.388 C 267.303 309.246,261.781 310.755,259.146 311.191 C 257.746 311.422,255.880 311.784,255.000 311.996 C 251.881 312.746,146.774 312.514,142.800 311.748 C 132.807 309.821,126.795 307.565,118.938 302.792 C 113.881 299.719,106.785 293.456,103.779 289.413 C 103.131 288.540,102.330 287.527,102.000 287.161 C 100.965 286.013,100.000 284.650,100.000 284.336 C 100.000 284.171,99.530 283.353,98.956 282.518 C 94.902 276.623,91.767 267.782,90.406 258.400 C 89.180 249.955,89.174 154.647,90.399 146.388 C 91.496 138.988,92.913 134.067,95.579 128.400 C 96.843 125.713,97.000 125.422,99.360 121.400 C 102.862 115.429,110.677 107.433,117.164 103.183 C 118.834 102.089,120.380 101.055,120.600 100.883 C 123.786 98.405,133.378 94.993,142.600 93.060 C 147.727 91.985,254.146 92.385,259.200 93.498 M147.400 104.458 C 144.760 104.648,141.880 105.055,141.000 105.364 C 140.120 105.672,138.860 106.040,138.200 106.181 C 135.512 106.756,128.647 109.765,126.135 111.470 C 125.381 111.981,124.669 112.400,124.552 112.400 C 123.194 112.400,114.269 120.824,111.157 125.044 C 109.720 126.992,106.402 132.633,106.398 133.136 C 106.396 133.281,106.120 133.927,105.784 134.571 C 104.941 136.189,103.467 140.772,102.559 144.600 C 101.379 149.574,101.379 255.226,102.559 260.200 C 103.406 263.773,105.117 269.186,105.592 269.800 C 105.763 270.020,106.027 270.606,106.179 271.103 C 108.536 278.790,119.928 290.467,129.800 295.315 C 132.905 296.840,136.776 298.400,137.456 298.400 C 137.698 298.400,139.044 298.805,140.448 299.300 L 143.000 300.200 199.600 300.200 C 251.358 300.200,256.354 300.143,258.000 299.536 C 258.990 299.170,260.746 298.657,261.901 298.395 C 263.057 298.134,264.103 297.758,264.225 297.560 C 264.347 297.362,264.734 297.200,265.085 297.200 C 265.715 297.200,269.638 295.537,270.800 294.777 C 271.130 294.561,271.850 294.161,272.400 293.888 C 278.111 291.048,286.345 283.122,290.151 276.800 C 290.747 275.810,291.401 274.730,291.605 274.400 C 293.970 270.576,296.310 263.397,297.344 256.800 C 298.318 250.587,298.344 154.479,297.374 148.000 C 296.519 142.291,294.288 134.815,292.957 133.200 C 292.685 132.870,292.341 132.112,292.192 131.516 C 292.043 130.920,291.669 130.223,291.361 129.967 C 291.052 129.711,290.800 129.350,290.800 129.165 C 290.800 128.980,290.254 128.057,289.587 127.114 C 288.920 126.171,288.068 124.950,287.694 124.400 C 287.321 123.850,286.202 122.530,285.207 121.467 C 284.213 120.404,283.269 119.302,283.110 119.020 C 282.496 117.933,274.693 112.013,272.400 110.894 C 271.850 110.625,271.130 110.231,270.800 110.018 C 269.817 109.383,265.757 107.600,265.294 107.600 C 265.058 107.600,264.355 107.346,263.732 107.035 C 261.275 105.808,256.032 104.770,250.400 104.397 C 243.273 103.924,154.100 103.977,147.400 104.458 M272.296 127.591 C 280.102 131.229,283.633 140.914,279.956 148.600 C 272.495 164.197,249.800 159.375,249.829 142.200 C 249.849 129.913,261.301 122.466,272.296 127.591 M211.600 150.873 C 212.590 151.213,214.120 151.680,215.000 151.910 C 224.936 154.506,235.286 161.705,242.187 170.818 C 245.227 174.833,245.409 175.129,247.530 179.474 C 248.261 180.974,249.116 182.678,249.430 183.262 C 249.743 183.846,250.000 184.718,250.000 185.201 C 250.000 185.684,250.263 186.646,250.584 187.340 C 253.745 194.163,253.757 209.059,250.608 218.800 C 246.358 231.946,235.668 244.744,224.600 249.934 C 224.160 250.140,222.413 250.960,220.718 251.755 C 219.024 252.550,217.452 253.200,217.227 253.200 C 217.001 253.200,215.688 253.541,214.308 253.958 C 204.943 256.790,196.071 256.779,185.000 253.921 C 173.278 250.895,159.839 240.692,154.403 230.691 C 152.104 226.461,149.991 222.106,149.993 221.600 C 149.994 221.270,149.733 220.497,149.412 219.883 C 149.092 219.269,148.718 218.099,148.582 217.283 C 148.445 216.467,148.033 214.900,147.667 213.800 C 146.659 210.776,146.700 195.274,147.726 191.600 C 150.612 181.266,152.803 176.733,158.481 169.355 C 161.911 164.898,169.723 158.394,174.394 156.108 C 174.947 155.837,175.670 155.455,176.000 155.259 C 177.159 154.572,180.427 153.200,180.911 153.198 C 181.180 153.196,181.940 152.913,182.600 152.569 C 183.260 152.224,184.610 151.774,185.600 151.568 C 186.590 151.362,188.300 150.930,189.400 150.608 C 192.247 149.774,208.985 149.974,211.600 150.873 M194.400 161.811 C 187.095 163.072,182.164 164.865,177.735 167.870 C 176.981 168.381,176.263 168.800,176.139 168.800 C 175.580 168.800,167.304 176.911,166.397 178.346 C 166.069 178.867,165.515 179.677,165.166 180.146 C 164.625 180.875,163.359 183.203,161.896 186.158 C 152.050 206.050,163.269 233.277,184.600 241.259 C 191.518 243.847,191.234 243.800,199.800 243.800 C 209.650 243.800,213.915 242.653,221.800 237.884 C 227.473 234.452,233.842 227.456,236.646 221.574 C 238.912 216.821,238.784 217.175,240.470 211.000 C 241.037 208.924,241.037 196.676,240.470 194.600 C 238.751 188.304,238.690 188.139,236.479 183.800 C 231.931 174.872,223.147 167.149,213.793 163.854 C 207.632 161.684,199.872 160.866,194.400 161.811 " stroke="none" fill="#3f729b" fill-rule="evenodd"></path></g></svg>