<svg id="svg" version="1.1" width="400" height="400" viewBox="0 0 400 400" xmlns="http://www.w3.org/2000/svg" xmlns:xlink="http://www.w3.org/1999/xlink" ><g id="svgg"><path id="path0" d="M0.000 200.000 L 0.000 400.000 200.000 400.000 L 400.000 400.000 400.000 200.000 L 400.000 0.000 200.000 0.000 L 0.000 0.000 0.000 200.000 M148.600 124.963 C 166.281 127.384,174.878 130.386,181.298 136.382 C 185.833 140.617,190.064 141.700,202.000 141.681 C 213.560 141.663,216.770 140.789,221.515 136.365 C 226.504 131.714,235.516 127.899,245.400 126.252 C 257.173 124.291,258.494 124.213,280.000 124.207 C 301.986 124.200,303.160 124.281,311.800 126.416 C 314.849 127.169,325.075 129.381,330.200 130.396 C 331.520 130.657,336.089 131.260,340.352 131.735 C 349.295 132.733,348.831 132.464,349.849 137.240 C 350.586 140.700,350.383 145.773,349.369 149.200 C 348.533 152.026,348.238 152.353,346.248 152.666 C 341.733 153.375,340.832 156.167,340.848 169.400 C 340.887 203.561,326.704 224.152,301.553 226.449 C 265.313 229.760,220.930 198.444,214.605 165.101 C 212.404 153.499,208.101 148.946,200.108 149.765 C 193.836 150.408,189.892 155.162,188.445 163.826 C 183.970 190.609,153.914 218.094,121.600 224.952 C 83.829 232.969,62.744 213.501,62.101 170.017 C 61.881 155.156,61.219 153.200,56.408 153.200 C 53.829 153.200,53.282 152.477,52.578 148.143 C 51.660 142.485,52.028 136.318,53.452 133.518 C 54.100 132.243,54.306 132.197,62.800 131.406 C 66.210 131.088,70.080 130.625,71.400 130.376 C 82.706 128.245,86.669 127.438,90.600 126.467 C 99.200 124.342,103.660 124.055,126.000 124.194 C 139.801 124.280,144.878 124.453,148.600 124.963 M111.600 129.199 C 78.055 130.332,66.859 140.271,66.808 168.964 C 66.747 203.001,82.417 223.143,107.978 221.883 C 112.157 221.677,113.860 221.427,121.200 219.947 C 144.018 215.347,168.655 196.805,178.673 176.692 C 190.981 151.983,182.460 134.634,156.331 131.203 C 154.719 130.992,152.770 130.649,152.000 130.441 C 148.392 129.468,124.962 128.748,111.600 129.199 M272.000 129.061 C 263.778 129.231,252.254 130.053,249.942 130.633 C 248.701 130.945,247.171 131.202,246.542 131.205 C 243.495 131.217,233.853 134.319,229.780 136.597 C 221.980 140.959,218.659 146.703,218.678 155.800 C 218.729 180.431,242.881 207.467,274.000 217.730 C 310.451 229.751,333.025 214.611,335.623 176.400 C 338.265 137.523,325.400 127.951,272.000 129.061 M263.440 147.429 C 266.599 148.347,266.769 149.142,265.016 154.800 C 264.709 155.790,263.803 159.030,263.002 162.000 C 262.202 164.970,261.290 168.210,260.976 169.200 C 260.662 170.190,259.407 174.690,258.187 179.200 C 253.813 195.370,254.300 194.545,249.970 193.154 C 246.342 191.989,246.197 191.503,247.802 185.888 C 248.382 183.860,249.191 181.030,249.600 179.600 C 250.683 175.812,252.318 169.923,253.431 165.800 C 253.966 163.820,254.756 161.030,255.187 159.600 C 255.617 158.170,256.259 155.920,256.611 154.600 C 258.958 145.825,258.733 146.061,263.440 147.429 M137.985 151.464 C 139.914 155.503,139.916 156.337,138.000 157.314 C 136.530 158.064,122.631 164.736,116.786 167.498 C 110.846 170.304,110.427 169.784,124.200 176.701 C 138.596 183.932,138.752 184.018,139.017 184.852 C 139.230 185.526,137.562 189.336,135.843 192.100 C 135.222 193.098,133.932 192.969,131.509 191.666 C 130.349 191.042,120.535 186.057,109.700 180.587 C 94.421 172.873,90.000 170.476,90.000 169.904 C 90.000 169.209,94.309 166.952,106.736 161.137 C 108.131 160.485,111.911 158.686,115.136 157.141 C 118.361 155.595,123.282 153.257,126.071 151.945 C 128.859 150.633,131.829 149.215,132.671 148.796 C 135.628 147.319,136.125 147.569,137.985 151.464 M282.663 151.038 C 285.708 152.489,289.280 154.183,290.600 154.802 C 291.920 155.422,295.880 157.306,299.400 158.990 C 302.920 160.673,308.320 163.253,311.400 164.723 C 320.510 169.069,321.800 169.770,321.800 170.379 C 321.800 170.727,319.009 172.372,314.800 174.504 C 279.698 192.288,276.796 193.695,276.216 193.213 C 275.309 192.461,272.309 186.169,272.463 185.341 C 272.560 184.817,276.401 182.670,285.600 178.000 C 294.512 173.476,298.642 171.175,298.732 170.685 C 298.838 170.115,297.385 169.258,291.532 166.437 C 279.357 160.570,273.922 158.000,273.686 158.000 C 271.790 158.000,271.697 155.786,273.446 152.290 C 275.856 147.474,275.332 147.545,282.663 151.038 M32.702 255.865 C 34.855 257.470,35.447 259.051,34.687 261.164 C 34.036 262.975,34.040 263.021,35.025 264.509 C 36.977 267.459,36.564 270.119,33.831 272.204 C 32.125 273.505,25.409 274.203,24.206 273.205 C 23.394 272.531,23.296 256.073,24.100 255.244 C 24.936 254.381,31.331 254.843,32.702 255.865 M55.622 255.408 C 59.825 256.891,62.121 260.075,62.094 264.384 C 62.036 273.716,49.914 277.047,44.608 269.190 C 39.867 262.167,47.546 252.558,55.622 255.408 M136.074 255.214 C 138.251 255.818,139.600 257.624,139.599 259.931 C 139.597 261.678,139.274 262.446,137.508 264.899 C 137.082 265.492,137.265 266.112,138.702 268.945 C 140.522 272.532,140.704 273.200,139.862 273.200 C 139.096 273.200,138.290 272.186,136.600 269.095 C 133.575 263.562,130.000 263.593,130.000 269.152 C 130.000 272.309,129.236 273.962,128.453 272.498 C 127.688 271.070,127.841 256.216,128.629 255.429 C 129.368 254.689,133.731 254.563,136.074 255.214 M160.849 256.104 C 169.959 260.820,166.697 273.395,156.367 273.383 C 145.707 273.371,143.433 259.104,153.501 255.407 C 156.042 254.474,158.072 254.666,160.849 256.104 M186.203 255.741 C 195.743 260.183,192.886 273.425,182.400 273.371 C 178.994 273.353,177.782 272.861,175.494 270.566 C 168.457 263.505,177.121 251.511,186.203 255.741 M207.713 255.348 C 213.677 257.890,211.572 265.200,204.875 265.200 C 201.697 265.200,201.200 265.836,201.200 269.902 C 201.200 272.871,200.458 274.168,199.566 272.758 C 198.679 271.358,199.140 256.087,200.089 255.423 C 201.220 254.631,205.921 254.585,207.713 255.348 M232.193 256.175 C 233.749 257.087,234.800 258.215,234.800 258.974 C 234.800 259.512,233.436 259.114,231.462 258.000 C 224.687 254.177,217.427 260.833,220.792 267.783 C 222.690 271.704,230.609 273.221,232.575 270.041 C 232.969 269.403,234.400 269.499,234.400 270.162 C 234.400 271.101,230.932 273.107,228.801 273.400 C 222.917 274.209,218.018 270.029,218.018 264.200 C 218.018 257.121,226.049 252.574,232.193 256.175 M318.635 256.017 C 327.676 260.394,324.760 272.613,314.468 273.476 C 310.328 273.823,310.400 273.982,310.400 264.460 C 310.400 254.652,310.431 254.575,314.312 254.938 C 315.739 255.071,317.684 255.557,318.635 256.017 M97.893 259.212 C 100.753 263.412,100.860 263.409,103.803 259.000 C 106.076 255.594,107.245 254.647,107.504 256.000 C 107.567 256.330,106.597 258.130,105.349 260.000 C 102.076 264.903,101.619 266.081,101.609 269.633 C 101.599 272.841,101.462 273.275,100.561 272.930 C 100.165 272.778,99.997 271.989,99.990 270.257 C 99.976 266.490,99.502 265.137,96.602 260.588 C 92.527 254.196,93.657 252.991,97.893 259.212 M86.557 256.233 C 86.874 257.058,86.874 270.942,86.557 271.767 C 86.116 272.918,85.208 272.433,81.887 269.273 C 74.829 262.559,72.753 260.749,72.285 260.904 C 71.948 261.015,71.739 262.792,71.600 266.714 C 71.400 272.373,71.021 273.830,70.054 272.665 C 69.214 271.653,69.617 256.646,70.488 256.478 C 70.927 256.394,73.367 258.397,77.212 261.998 C 84.705 269.016,84.568 269.009,84.698 262.395 C 84.752 259.648,84.890 256.995,85.006 256.500 C 85.247 255.464,86.199 255.300,86.557 256.233 M244.445 258.397 C 244.764 261.693,245.194 262.000,249.503 262.000 C 254.010 262.000,254.398 261.754,254.406 258.886 C 254.413 256.313,254.818 255.368,255.760 255.729 C 256.318 255.943,256.400 257.027,256.400 264.200 C 256.400 271.373,256.318 272.457,255.760 272.671 C 254.739 273.062,254.413 272.038,254.400 268.400 C 254.383 263.752,254.433 263.800,249.636 263.800 C 244.625 263.800,244.670 263.756,244.467 268.826 C 244.328 272.272,244.213 272.823,243.653 272.715 C 243.002 272.590,242.407 257.602,242.991 256.078 C 243.474 254.820,244.213 255.999,244.445 258.397 M302.557 256.233 C 303.130 257.727,302.819 271.486,302.200 272.000 C 301.464 272.610,301.646 272.744,295.600 267.161 C 293.070 264.824,290.479 262.438,289.842 261.856 C 287.513 259.733,287.200 260.343,287.200 267.000 C 287.200 272.197,287.038 273.200,286.200 273.200 C 285.321 273.200,285.200 272.160,285.200 264.600 C 285.200 254.064,284.751 254.280,292.200 261.231 C 301.077 269.514,300.800 269.500,300.800 261.679 C 300.800 258.629,300.920 256.013,301.067 255.867 C 301.539 255.394,302.308 255.582,302.557 256.233 M369.400 264.005 C 369.400 274.088,369.930 273.910,362.014 266.478 C 354.380 259.312,354.658 259.298,354.400 266.873 C 354.193 272.928,353.939 273.951,352.967 272.623 C 352.118 271.461,352.142 257.112,352.995 256.404 C 353.638 255.871,353.435 255.707,362.247 263.857 C 367.788 268.982,368.000 268.860,368.000 260.545 C 368.000 255.995,368.063 255.554,368.700 255.676 C 369.340 255.799,369.400 256.519,369.400 264.005 M379.000 264.228 C 379.000 271.873,378.940 272.601,378.300 272.724 C 377.575 272.863,377.164 256.569,377.875 255.858 C 378.813 254.921,379.000 256.315,379.000 264.228 M272.326 258.100 C 272.765 259.035,274.062 261.960,275.208 264.600 C 276.354 267.240,277.561 269.984,277.890 270.697 C 279.392 273.954,277.450 273.657,275.787 270.375 C 274.652 268.134,274.359 267.998,270.667 268.006 C 267.213 268.014,267.155 268.046,265.731 270.781 C 262.992 276.039,262.908 272.927,265.623 266.780 C 266.736 264.261,268.104 261.120,268.665 259.800 C 270.372 255.777,271.082 255.448,272.326 258.100 M339.789 258.900 C 340.393 260.275,341.701 263.200,342.696 265.400 C 345.681 271.998,346.053 273.502,344.558 272.929 C 344.219 272.799,343.518 271.733,343.000 270.561 C 341.902 268.078,341.505 267.909,337.196 268.081 L 334.202 268.200 333.104 270.377 C 331.753 273.056,331.343 273.503,330.770 272.930 C 330.345 272.505,331.523 269.239,334.133 263.600 C 334.693 262.390,335.442 260.680,335.796 259.800 C 337.457 255.680,338.292 255.492,339.789 258.900 M26.070 257.125 C 25.046 257.819,25.005 260.605,26.004 261.604 C 27.861 263.461,32.800 262.004,32.800 259.600 C 32.800 257.545,28.034 255.792,26.070 257.125 M49.400 257.556 C 46.430 258.927,45.200 260.973,45.200 264.546 C 45.200 273.341,58.852 274.186,60.265 265.478 C 61.213 259.632,54.891 255.022,49.400 257.556 M130.480 257.280 C 129.634 258.126,129.862 262.698,130.774 263.186 C 134.129 264.981,138.974 261.940,137.536 258.942 C 136.617 257.024,131.857 255.903,130.480 257.280 M153.383 257.552 C 145.983 260.913,148.304 271.600,156.434 271.600 C 161.040 271.600,164.000 268.722,164.000 264.245 C 164.000 258.619,158.570 255.196,153.383 257.552 M179.240 257.616 C 176.044 259.066,174.465 261.971,174.985 265.442 C 176.334 274.432,190.000 273.328,190.000 264.229 C 190.000 258.652,184.460 255.248,179.240 257.616 M202.089 257.136 C 201.217 257.690,200.988 261.417,201.755 262.587 C 203.173 264.752,208.414 263.468,208.997 260.813 C 209.622 257.969,204.811 255.409,202.089 257.136 M313.100 257.212 C 311.978 257.897,312.045 270.582,313.174 271.186 C 317.142 273.310,323.341 267.477,322.018 262.864 C 320.870 258.861,315.733 255.605,313.100 257.212 M269.769 262.191 C 268.347 264.361,268.766 265.785,270.867 265.921 C 273.216 266.072,273.638 265.227,272.412 262.823 C 271.462 260.961,270.695 260.778,269.769 262.191 M337.299 261.700 C 335.164 264.376,335.517 266.000,338.232 266.000 C 340.519 266.000,340.848 265.270,339.611 262.938 C 338.670 261.164,338.009 260.810,337.299 261.700 M26.051 264.749 C 24.993 265.807,24.858 269.333,25.823 270.711 C 27.271 272.779,33.619 271.456,34.247 268.956 C 35.132 265.428,28.683 262.117,26.051 264.749 " stroke="none" fill="#323232" fill-rule="evenodd"></path><path id="path1" d="M104.000 124.379 C 99.158 124.719,95.140 125.345,90.600 126.467 C 86.669 127.438,82.706 128.245,71.400 130.376 C 70.080 130.625,66.210 131.088,62.800 131.406 C 54.306 132.197,54.100 132.243,53.452 133.518 C 52.028 136.318,51.660 142.485,52.578 148.143 C 53.282 152.477,53.829 153.200,56.408 153.200 C 61.219 153.200,61.881 155.156,62.101 170.017 C 62.744 213.501,83.829 232.969,121.600 224.952 C 153.914 218.094,183.970 190.609,188.445 163.826 C 189.892 155.162,193.836 150.408,200.108 149.765 C 208.101 148.946,212.404 153.499,214.605 165.101 C 220.930 198.444,265.313 229.760,301.553 226.449 C 326.704 224.152,340.887 203.561,340.848 169.400 C 340.832 156.167,341.733 153.375,346.248 152.666 C 348.238 152.353,348.533 152.026,349.369 149.200 C 350.383 145.773,350.586 140.700,349.849 137.240 C 348.831 132.464,349.295 132.733,340.352 131.735 C 336.089 131.260,331.520 130.657,330.200 130.396 C 325.075 129.381,314.849 127.169,311.800 126.416 C 303.160 124.281,301.986 124.200,280.000 124.207 C 258.494 124.213,257.173 124.291,245.400 126.252 C 235.516 127.899,226.504 131.714,221.515 136.365 C 216.770 140.789,213.560 141.663,202.000 141.681 C 190.064 141.700,185.833 140.617,181.298 136.382 C 174.878 130.386,166.281 127.384,148.600 124.963 C 143.272 124.233,111.918 123.822,104.000 124.379 M143.200 129.642 C 147.270 129.874,151.230 130.234,152.000 130.441 C 152.770 130.649,154.719 130.992,156.331 131.203 C 182.460 134.634,190.981 151.983,178.673 176.692 C 168.655 196.805,144.018 215.347,121.200 219.947 C 113.860 221.427,112.157 221.677,107.978 221.883 C 82.417 223.143,66.747 203.001,66.808 168.964 C 66.870 134.345,82.704 126.195,143.200 129.642 M299.600 129.632 C 327.634 131.706,337.766 144.861,335.623 176.400 C 333.211 211.878,314.340 227.031,281.400 219.941 C 234.241 209.790,199.423 153.573,229.780 136.597 C 233.853 134.319,243.495 131.217,246.542 131.205 C 247.171 131.202,248.701 130.945,249.942 130.633 C 256.015 129.109,284.712 128.530,299.600 129.632 M258.044 149.500 C 257.609 150.985,256.964 153.280,256.611 154.600 C 256.259 155.920,255.617 158.170,255.187 159.600 C 254.756 161.030,253.966 163.820,253.431 165.800 C 252.318 169.923,250.683 175.812,249.600 179.600 C 249.191 181.030,248.382 183.860,247.802 185.888 C 246.197 191.503,246.342 191.989,249.970 193.154 C 254.300 194.545,253.813 195.370,258.187 179.200 C 259.407 174.690,260.662 170.190,260.976 169.200 C 261.290 168.210,262.202 164.970,263.002 162.000 C 263.803 159.030,264.709 155.790,265.016 154.800 C 266.769 149.142,266.599 148.347,263.440 147.429 C 259.356 146.242,258.952 146.397,258.044 149.500 M132.671 148.796 C 131.829 149.215,128.859 150.633,126.071 151.945 C 123.282 153.257,118.361 155.595,115.136 157.141 C 111.911 158.686,108.131 160.485,106.736 161.137 C 94.309 166.952,90.000 169.209,90.000 169.904 C 90.000 170.476,94.421 172.873,109.700 180.587 C 120.535 186.057,130.349 191.042,131.509 191.666 C 133.932 192.969,135.222 193.098,135.843 192.100 C 137.562 189.336,139.230 185.526,139.017 184.852 C 138.752 184.018,138.596 183.932,124.200 176.701 C 110.427 169.784,110.846 170.304,116.786 167.498 C 122.631 164.736,136.530 158.064,138.000 157.314 C 139.916 156.337,139.914 155.503,137.985 151.464 C 136.125 147.569,135.628 147.319,132.671 148.796 M275.295 148.900 C 274.482 149.910,272.000 155.203,272.000 155.928 C 272.000 156.605,273.136 158.000,273.686 158.000 C 273.922 158.000,279.357 160.570,291.532 166.437 C 297.385 169.258,298.838 170.115,298.732 170.685 C 298.642 171.175,294.512 173.476,285.600 178.000 C 276.401 182.670,272.560 184.817,272.463 185.341 C 272.309 186.169,275.309 192.461,276.216 193.213 C 276.796 193.695,279.698 192.288,314.800 174.504 C 319.009 172.372,321.800 170.727,321.800 170.379 C 321.800 169.770,320.510 169.069,311.400 164.723 C 308.320 163.253,302.920 160.673,299.400 158.990 C 295.880 157.306,291.920 155.422,290.600 154.802 C 289.280 154.183,285.708 152.489,282.663 151.038 C 276.966 148.324,275.988 148.040,275.295 148.900 M24.100 255.244 C 23.296 256.073,23.394 272.531,24.206 273.205 C 25.409 274.203,32.125 273.505,33.831 272.204 C 36.564 270.119,36.977 267.459,35.025 264.509 C 34.040 263.021,34.036 262.975,34.687 261.164 C 35.447 259.051,34.855 257.470,32.702 255.865 C 31.331 254.843,24.936 254.381,24.100 255.244 M48.968 255.754 C 38.960 260.414,42.978 274.721,53.934 273.435 C 63.946 272.261,65.207 258.790,55.622 255.408 C 53.210 254.557,51.329 254.655,48.968 255.754 M128.629 255.429 C 127.841 256.216,127.688 271.070,128.453 272.498 C 129.236 273.962,130.000 272.309,130.000 269.152 C 130.000 263.593,133.575 263.562,136.600 269.095 C 138.290 272.186,139.096 273.200,139.862 273.200 C 140.704 273.200,140.522 272.532,138.702 268.945 C 137.265 266.112,137.082 265.492,137.508 264.899 C 139.274 262.446,139.597 261.678,139.599 259.931 C 139.600 257.624,138.251 255.818,136.074 255.214 C 133.731 254.563,129.368 254.689,128.629 255.429 M153.501 255.407 C 143.433 259.104,145.707 273.371,156.367 273.383 C 162.620 273.390,166.317 269.517,165.926 263.369 C 165.551 257.487,159.098 253.351,153.501 255.407 M178.478 255.836 C 169.257 260.431,172.139 273.318,182.400 273.371 C 186.953 273.394,189.662 271.622,191.388 267.491 C 194.514 260.009,185.832 252.171,178.478 255.836 M200.089 255.423 C 199.140 256.087,198.679 271.358,199.566 272.758 C 200.458 274.168,201.200 272.871,201.200 269.902 C 201.200 265.836,201.697 265.200,204.875 265.200 C 211.572 265.200,213.677 257.890,207.713 255.348 C 205.921 254.585,201.220 254.631,200.089 255.423 M223.696 255.762 C 213.710 260.531,217.870 274.903,228.801 273.400 C 230.932 273.107,234.400 271.101,234.400 270.162 C 234.400 269.499,232.969 269.403,232.575 270.041 C 230.609 273.221,222.690 271.704,220.792 267.783 C 217.427 260.833,224.687 254.177,231.462 258.000 C 234.350 259.630,235.270 259.626,234.393 257.986 C 232.945 255.281,227.203 254.087,223.696 255.762 M311.059 255.637 C 310.501 256.434,310.400 257.786,310.400 264.460 C 310.400 273.982,310.328 273.823,314.468 273.476 C 327.278 272.402,327.141 256.136,314.312 254.938 C 311.905 254.713,311.671 254.763,311.059 255.637 M94.156 255.769 C 94.016 256.136,94.998 258.073,96.602 260.588 C 99.502 265.137,99.976 266.490,99.990 270.257 C 99.997 271.989,100.165 272.778,100.561 272.930 C 101.462 273.275,101.599 272.841,101.609 269.633 C 101.619 266.081,102.076 264.903,105.349 260.000 C 106.597 258.130,107.567 256.330,107.504 256.000 C 107.245 254.647,106.076 255.594,103.803 259.000 C 100.860 263.409,100.753 263.412,97.893 259.212 C 95.413 255.569,94.541 254.766,94.156 255.769 M85.006 256.500 C 84.890 256.995,84.752 259.648,84.698 262.395 C 84.568 269.009,84.705 269.016,77.212 261.998 C 73.367 258.397,70.927 256.394,70.488 256.478 C 69.617 256.646,69.214 271.653,70.054 272.665 C 71.021 273.830,71.400 272.373,71.600 266.714 C 71.739 262.792,71.948 261.015,72.285 260.904 C 72.753 260.749,74.829 262.559,81.887 269.273 C 85.208 272.433,86.116 272.918,86.557 271.767 C 86.874 270.942,86.874 257.058,86.557 256.233 C 86.199 255.300,85.247 255.464,85.006 256.500 M242.991 256.078 C 242.407 257.602,243.002 272.590,243.653 272.715 C 244.213 272.823,244.328 272.272,244.467 268.826 C 244.670 263.756,244.625 263.800,249.636 263.800 C 254.433 263.800,254.383 263.752,254.400 268.400 C 254.413 272.038,254.739 273.062,255.760 272.671 C 256.318 272.457,256.400 271.373,256.400 264.200 C 256.400 257.027,256.318 255.943,255.760 255.729 C 254.818 255.368,254.413 256.313,254.406 258.886 C 254.398 261.754,254.010 262.000,249.503 262.000 C 245.194 262.000,244.764 261.693,244.445 258.397 C 244.213 255.999,243.474 254.820,242.991 256.078 M301.067 255.867 C 300.920 256.013,300.800 258.629,300.800 261.679 C 300.800 269.500,301.077 269.514,292.200 261.231 C 284.751 254.280,285.200 254.064,285.200 264.600 C 285.200 272.160,285.321 273.200,286.200 273.200 C 287.038 273.200,287.200 272.197,287.200 267.000 C 287.200 260.343,287.513 259.733,289.842 261.856 C 290.479 262.438,293.070 264.824,295.600 267.161 C 301.646 272.744,301.464 272.610,302.200 272.000 C 302.819 271.486,303.130 257.727,302.557 256.233 C 302.308 255.582,301.539 255.394,301.067 255.867 M368.000 260.545 C 368.000 268.860,367.788 268.982,362.247 263.857 C 353.435 255.707,353.638 255.871,352.995 256.404 C 352.142 257.112,352.118 271.461,352.967 272.623 C 353.939 273.951,354.193 272.928,354.400 266.873 C 354.658 259.298,354.380 259.312,362.014 266.478 C 365.366 269.625,368.399 272.200,368.754 272.200 C 369.784 272.200,369.730 255.875,368.700 255.676 C 368.063 255.554,368.000 255.995,368.000 260.545 M377.875 255.858 C 377.164 256.569,377.575 272.863,378.300 272.724 C 378.940 272.601,379.000 271.873,379.000 264.228 C 379.000 256.315,378.813 254.921,377.875 255.858 M270.091 256.900 C 269.867 257.175,269.225 258.480,268.665 259.800 C 268.104 261.120,266.736 264.261,265.623 266.780 C 262.908 272.927,262.992 276.039,265.731 270.781 C 267.155 268.046,267.213 268.014,270.667 268.006 C 274.359 267.998,274.652 268.134,275.787 270.375 C 277.450 273.657,279.392 273.954,277.890 270.697 C 277.561 269.984,276.354 267.240,275.208 264.600 C 271.431 255.900,271.195 255.544,270.091 256.900 M337.030 257.300 C 336.706 257.795,336.151 258.920,335.796 259.800 C 335.442 260.680,334.693 262.390,334.133 263.600 C 331.523 269.239,330.345 272.505,330.770 272.930 C 331.343 273.503,331.753 273.056,333.104 270.377 L 334.202 268.200 337.196 268.081 C 341.505 267.909,341.902 268.078,343.000 270.561 C 343.518 271.733,344.219 272.799,344.558 272.929 C 346.053 273.502,345.681 271.998,342.696 265.400 C 341.701 263.200,340.393 260.275,339.789 258.900 C 338.617 256.233,337.972 255.859,337.030 257.300 M31.985 257.786 C 34.007 259.616,32.521 261.921,29.092 262.275 C 25.726 262.623,23.516 258.857,26.070 257.125 C 26.976 256.510,31.082 256.969,31.985 257.786 M55.803 257.546 C 63.391 260.993,60.950 271.600,52.570 271.600 C 47.172 271.600,43.687 266.444,45.627 261.326 C 47.033 257.614,51.941 255.791,55.803 257.546 M136.000 257.318 C 138.503 258.584,138.352 261.959,135.744 263.049 C 134.183 263.702,131.857 263.766,130.774 263.186 C 129.862 262.698,129.634 258.126,130.480 257.280 C 131.111 256.649,134.728 256.674,136.000 257.318 M159.507 257.419 C 162.603 258.713,164.000 260.835,164.000 264.245 C 164.000 273.376,150.332 274.424,148.979 265.397 C 148.129 259.732,154.141 255.177,159.507 257.419 M185.910 257.653 C 188.649 258.979,190.000 261.151,190.000 264.229 C 190.000 273.328,176.334 274.432,174.985 265.442 C 174.078 259.390,180.313 254.944,185.910 257.653 M206.953 257.182 C 211.022 258.729,209.017 263.595,204.309 263.599 C 201.781 263.601,200.982 262.504,201.335 259.518 C 201.654 256.823,203.735 255.959,206.953 257.182 M318.495 258.102 C 324.642 261.556,322.110 271.536,315.074 271.591 C 312.459 271.612,312.400 271.449,312.400 264.206 C 312.400 256.183,313.364 255.217,318.495 258.102 M272.412 262.823 C 273.638 265.227,273.216 266.072,270.867 265.921 C 269.035 265.802,269.001 265.775,269.060 264.491 C 269.206 261.293,271.140 260.331,272.412 262.823 M339.611 262.938 C 340.848 265.270,340.519 266.000,338.232 266.000 C 335.985 266.000,335.380 265.196,336.285 263.412 C 337.693 260.636,338.341 260.544,339.611 262.938 M32.761 265.108 C 36.309 267.749,34.034 271.595,28.923 271.599 C 25.873 271.600,25.200 270.898,25.200 267.711 C 25.200 264.014,29.365 262.581,32.761 265.108 " stroke="none" fill="#ffffff" fill-rule="evenodd"></path></g></svg>