<svg xmlns="http://www.w3.org/2000/svg" xmlns:xlink="http://www.w3.org/1999/xlink" viewBox="0 0 1949 1949"><defs><style>.cls-1{fill:#cfd8dc;}.cls-2{fill:#1a1a1a;}.cls-3{fill-rule:evenodd;fill:url(#linear-gradient);}.cls-4{fill:none;stroke:#d9d9d9;stroke-linecap:round;stroke-linejoin:round;stroke-width:72px;}</style><linearGradient id="linear-gradient" x1="-4436.53" y1="1542.93" x2="-4435.53" y2="1542.93" gradientTransform="matrix(839.43, 0, 0, -839.43, 3724707.06, 1296155.05)" gradientUnits="userSpaceOnUse"><stop offset="0" stop-color="#fc5c7d"/><stop offset="1" stop-color="#6a82fb"/></linearGradient></defs><g id="Layer_2" data-name="Layer 2"><g id="Layer_1-2" data-name="Layer 1"><rect class="cls-1" width="1949" height="1949"/><rect class="cls-2" x="554.78" y="554.79" width="839.42" height="839.42"/><path class="cls-3" d="M1400.49,435l6.27.49,6.23.81,6.18,1.14,6.1,1.48,6,1.78,5.91,2.1,5.81,2.4,5.68,2.71,5.52,3,5.35,3.27,5.17,3.57,5,3.81,4.78,4.08,4.56,4.34,4.32,4.56,4.08,4.77,3.83,5,3.55,5.19,3.29,5.35,3,5.52,2.7,5.67,2.4,5.8,2.1,5.93,1.79,6,1.46,6.11,1.15,6.18.82,6.23.49,6.26.17,6.28v839.42l-.17,6.29-.49,6.26-.82,6.23-1.15,6.17-1.46,6.12-1.79,6-2.1,5.92-2.4,5.81-2.7,5.66-3,5.52-3.29,5.37-3.55,5.17-3.83,5-4.08,4.78-4.32,4.54-4.56,4.34-4.78,4.08-5,3.82-5.17,3.56-5.35,3.28-5.52,3-5.68,2.71-5.81,2.4-5.91,2.1-6,1.79-6.1,1.47-6.18,1.14-6.23.82-6.27.5-6.27.15H554.78l-6.27-.15-6.27-.5-6.23-.82-6.18-1.14-6.1-1.47-6-1.79-5.93-2.1-5.79-2.4-5.68-2.71-5.52-3-5.35-3.28-5.18-3.56-5-3.82-4.78-4.08-4.56-4.34-4.32-4.54-4.08-4.78-3.83-5-3.56-5.17-3.28-5.37-3-5.52-2.7-5.66-2.41-5.81-2.09-5.92-1.79-6-1.46-6.12-1.15-6.17-.82-6.23-.49-6.26-.17-6.29V554.79l.17-6.28.49-6.26.82-6.23,1.15-6.18,1.46-6.11,1.79-6,2.09-5.93,2.41-5.8,2.7-5.67,3-5.52,3.28-5.35,3.56-5.19,3.83-5,4.08-4.77,4.32-4.56,4.56-4.34,4.78-4.08,5-3.81,5.18-3.57,5.35-3.27,5.52-3,5.68-2.71,5.79-2.4,5.93-2.1,6-1.78,6.1-1.48,6.18-1.14,6.23-.81,6.27-.49,6.27-.17h839.44ZM554.78,554.79v839.42h839.44V554.79Z"/><path class="cls-4" d="M679.77,672.34,915.33,789.57,690.09,905.73"/><path class="cls-4" d="M807.2,1032.46l241.73-1.64"/></g></g></svg>