<svg xmlns="http://www.w3.org/2000/svg" viewBox="0 0 507.6 507.6"><defs><style>.cls-1{fill:#ef712b;}.cls-2{fill:#fff;}</style></defs><g id="Layer_2" data-name="Layer 2"><g id="Layer_1-2" data-name="Layer 1"><circle class="cls-1" cx="253.8" cy="253.8" r="253.8"/><path class="cls-2" d="M72.05,258.75a1.64,1.64,0,0,1-3.28,0l-2.45-20.47,2.45-20.47c.82-1.64.82-1.64,1.64-1.64a1.76,1.76,0,0,1,1.64,1.64h0l3.27,20.47ZM86,271a1.64,1.64,0,0,1-3.27,0l-3.28-32.75,3.28-33.57a1.64,1.64,0,1,1,3.27,0l4.1,33.57Zm15.56,5.73a1.64,1.64,0,0,1-3.28,0L95,238.28l3.27-40.12a1.64,1.64,0,0,1,3.28,0l4.09,40.12Zm14.74.82a2.46,2.46,0,0,1-4.92,0l-3.27-39.3,3.27-40.94a2.46,2.46,0,0,1,4.92,0l4.09,40.94Zm15.55.81a2.62,2.62,0,0,1-2.45,2.46q-1.23,0-2.46-2.46l-3.28-40.11,3.28-37.66a2.62,2.62,0,0,1,2.46-2.46c.81,0,1.63.82,2.45,2.46l3.28,37.66Zm15.56,0h0c0,1.64-1.64,2.46-3.28,2.46a2.17,2.17,0,0,1-2.45-2.46l-3.28-40.11,3.28-62.22c0-1.64,1.63-2.46,3.27-2.46a2.17,2.17,0,0,1,2.46,2.46l3.27,62.22Zm14.73,0h0a3.28,3.28,0,1,1-6.55,0h0l-2.45-40.11,2.45-76.14a3.28,3.28,0,1,1,6.55,0l3.28,76.14Zm16.38-.81h0a3.28,3.28,0,0,1-6.55,0l-2.46-39.3,2.46-82.69a3.28,3.28,0,1,1,6.55,0l2.45,82.69Zm15.55,0c0,2.45-2.45,3.27-4.09,3.27a3.53,3.53,0,0,1-3.28-3.27l-2.45-39.3,2.45-85.15c0-2.45,2.46-3.27,4.1-3.27a3.51,3.51,0,0,1,3.27,3.27l2.46,85.15Zm15.56-.82h0a4.1,4.1,0,0,1-8.19,0L199,238.28l2.45-82.69a4.1,4.1,0,1,1,8.19,0h0L212,238.28Zm16.37,0h0a4.09,4.09,0,0,1-8.18,0l-1.64-38.48L217.78,158a4.09,4.09,0,0,1,8.18,0l2.46,80.24Zm16.38-4.1v4.1A4.26,4.26,0,0,1,240.7,280a6.22,6.22,0,0,1-3.28,1.64,4.26,4.26,0,0,1-3.27-1.64,3,3,0,0,1-.82-2.45h0l-1.64-38.48L233.33,145v-.82a4.51,4.51,0,0,1,2.46-4.1,5.21,5.21,0,0,1,4.91,0,4.51,4.51,0,0,1,2.46,4.1l1.63,95Zm15.55,3.28h0a4.91,4.91,0,0,1-9.82,0l-.82-18.83-1.64-18.83,2.46-103.16v-.82a6.28,6.28,0,0,1,1.63-4.09c.82-.82,1.64-.82,3.28-.82a3,3,0,0,1,2.46.82,4.5,4.5,0,0,1,2.45,4.09l2.46,104Zm136.73,4.91H267.72a5.29,5.29,0,0,1-4.92-4.91V129.39c0-2.46.82-4.09,4.1-5.73,9-3.28,19.65-5.73,29.47-5.73,42.57,0,77,32.75,81.05,73.68,23.75-9.82,50.76.82,60.59,24.56s-.82,50.76-24.56,60.59c-5.74,3.27-12.28,4.09-18.83,4.09Z"/><path class="cls-2" d="M293.55,307.59H231.06a6.57,6.57,0,0,0-6.57,6.56v62.77H211.74a3,3,0,0,0-2,5.15l47.77,44a7.35,7.35,0,0,0,10,0l47.77-44a3,3,0,0,0-2-5.15H300.48v-62.4A6.93,6.93,0,0,0,293.55,307.59Z"/></g></g></svg>