<svg xmlns="http://www.w3.org/2000/svg" viewBox="0 0 465 465"><defs><style>.cls-1{fill:#37474f;}.cls-2{fill:#fff;fill-rule:evenodd;}</style></defs><g id="Layer_2" data-name="Layer 2"><g id="Layer_1-2" data-name="Layer 1"><rect class="cls-1" width="465" height="465"/><path id="path0" class="cls-2" d="M172.74,112.37c-11.07,1.45-17,9.86-17.71,25l-.38,8.58-10.35.26c-6.65.16-10.72.47-11.36.86s-1.9,1-3,1.47c-3.86,1.72-7.54,6.49-8.69,11.26-1,4.19-1,175.65,0,179.84a18,18,0,0,0,11.36,12.53c2.58,1,3.3,1,100,1H330.1l3-1.22a21.9,21.9,0,0,0,3.85-1.89,22.58,22.58,0,0,0,6.17-7.42l1.36-2.85V249.62c0-65.78-.15-90.36-.56-90.88a10.25,10.25,0,0,1-1.17-2.56c-.79-2.47-6.2-8-7.84-8a7.4,7.4,0,0,1-2-.87c-1.26-.72-3.23-.9-11.61-1-12.21-.22-11.36.32-11.36-7.21,0-19.65-7.09-27.22-25.5-27.22s-26,8.09-26,28.08c0,7.07,3.33,6.31-26.75,6.14l-24.49-.14-.33-8.63c-.27-7.22-.5-9-1.39-10.95a19.45,19.45,0,0,1-1.06-2.63c0-1.54-7.72-9.35-9.24-9.35a2.68,2.68,0,0,1-1.32-.72c-1.66-1.5-13.73-2.22-21.07-1.27m12.92,17.18c3.68.79,3.65.62,3.47,24.55-.19,24.44.71,22.06-8.27,22.09s-8.29,2.33-8.29-23c0-11.79.2-21.16.48-21.88.78-2.05,7.17-3,12.61-1.79m103.63,0c4,1.12,3.94.55,3.94,23.47,0,24.53.41,23.44-8.84,23.44s-8.89,1.15-8.72-24l.14-20.87,1.26-.9c2.26-1.6,8.43-2.17,12.22-1.12m37.24,69.11c.36.67.49,22.63.4,68.79l-.13,67.81-93.85.13c-68.95.09-94,0-94.53-.45-.84-.69-1-133.23-.21-135.41.69-1.83-5-1.72,95-1.79,91.32-.05,92.76,0,93.27.92M284.89,228.8c-.56.11-14.19,13.39-30.29,29.51s-29.73,29.5-30.28,29.72c-.86.34-3.22-1.82-15.66-14.39-9.92-10-15-14.86-15.9-15a6.11,6.11,0,0,0-5.41,2c-.7.78-2.38,2.58-3.73,4-3.58,3.76-3.45,4.65,1.4,9.6,39.73,40.65,38.72,39.86,43.91,34.58l34.89-35.09C302,235.31,299,239.47,293.67,233.48c-4.21-4.79-5.31-5.37-8.78-4.68"/></g></g></svg>