<svg id="svg" version="1.1" width="400" height="400" viewBox="0 0 400 400" xmlns="http://www.w3.org/2000/svg" xmlns:xlink="http://www.w3.org/1999/xlink" ><g id="svgg"><path id="path0" d="M154.540 109.222 C 145.765 110.366,141.033 117.032,140.502 129.000 L 140.200 135.800 132.000 136.005 C 126.737 136.137,123.513 136.381,123.000 136.686 C 122.560 136.947,121.497 137.474,120.639 137.855 C 117.583 139.214,114.664 143.000,113.760 146.778 C 112.966 150.097,112.976 285.943,113.770 289.266 C 114.843 293.751,118.107 297.350,122.769 299.188 C 124.815 299.994,125.389 300.000,202.023 300.000 L 279.216 300.000 281.585 299.037 C 282.888 298.508,284.261 297.833,284.637 297.537 C 286.683 295.930,288.569 293.660,289.523 291.659 L 290.600 289.400 290.600 217.961 C 290.600 165.846,290.479 146.371,290.152 145.961 C 289.906 145.653,289.492 144.740,289.232 143.934 C 288.601 141.972,284.319 137.605,283.019 137.598 C 282.788 137.596,282.060 137.287,281.400 136.910 C 280.404 136.341,278.839 136.200,272.203 136.081 C 262.526 135.908,263.200 136.335,263.200 130.367 C 263.200 114.795,257.585 108.800,243.000 108.800 C 228.336 108.800,222.400 115.210,222.400 131.045 C 222.400 136.652,225.037 136.047,201.200 135.911 L 181.800 135.800 181.540 128.966 C 181.323 123.241,181.144 121.834,180.440 120.288 C 179.978 119.274,179.600 118.336,179.600 118.205 C 179.600 116.987,173.478 110.800,172.274 110.800 C 172.048 110.800,171.577 110.541,171.227 110.224 C 169.917 109.039,160.354 108.464,154.540 109.222 M164.774 122.832 C 167.686 123.456,167.668 123.325,167.523 142.286 C 167.375 161.644,168.081 159.759,160.967 159.783 C 153.743 159.807,154.400 161.628,154.400 141.582 C 154.400 132.248,154.563 124.824,154.780 124.254 C 155.398 122.626,160.459 121.906,164.774 122.832 M246.882 122.816 C 250.075 123.703,250.000 123.255,250.000 141.410 C 250.000 160.844,250.325 159.981,243.000 159.981 C 235.619 159.981,235.952 160.898,236.087 140.948 L 236.200 124.415 237.195 123.707 C 238.990 122.432,243.878 121.982,246.882 122.816 M276.387 177.576 C 276.670 178.105,276.771 195.499,276.701 232.076 L 276.600 285.800 202.242 285.901 C 147.614 285.975,127.741 285.883,127.342 285.552 C 126.682 285.004,126.521 179.987,127.177 178.260 C 127.728 176.812,123.251 176.896,202.486 176.846 C 274.843 176.801,275.978 176.812,276.387 177.576 M243.394 201.470 C 242.951 201.558,232.151 212.081,219.394 224.852 C 206.638 237.624,195.840 248.219,195.400 248.396 C 194.721 248.669,192.852 246.951,183.000 236.995 C 175.140 229.052,171.078 225.224,170.400 225.121 C 168.826 224.881,167.210 225.469,166.115 226.683 C 165.560 227.297,164.227 228.726,163.153 229.857 C 160.323 232.837,160.425 233.539,164.263 237.466 C 195.743 269.674,194.943 269.044,199.058 264.862 C 199.686 264.224,212.125 251.713,226.700 237.062 C 256.978 206.625,254.534 209.919,250.354 205.175 C 247.013 201.384,246.143 200.921,243.394 201.470 " stroke="none" fill="#ffffff" fill-rule="evenodd"></path><path id="path1" d="M0.000 200.000 L 0.000 400.000 200.000 400.000 L 400.000 400.000 400.000 200.000 L 400.000 0.000 200.000 0.000 L 0.000 0.000 0.000 200.000 M167.206 109.224 C 169.068 109.458,170.877 109.908,171.227 110.224 C 171.577 110.541,172.048 110.800,172.274 110.800 C 173.478 110.800,179.600 116.987,179.600 118.205 C 179.600 118.336,179.978 119.274,180.440 120.288 C 181.144 121.834,181.323 123.241,181.540 128.966 L 181.800 135.800 201.200 135.911 C 225.037 136.047,222.400 136.652,222.400 131.045 C 222.400 115.210,228.336 108.800,243.000 108.800 C 257.585 108.800,263.200 114.795,263.200 130.367 C 263.200 136.335,262.526 135.908,272.203 136.081 C 278.839 136.200,280.404 136.341,281.400 136.910 C 282.060 137.287,282.788 137.596,283.019 137.598 C 284.319 137.605,288.601 141.972,289.232 143.934 C 289.492 144.740,289.906 145.653,290.152 145.961 C 290.479 146.371,290.600 165.846,290.600 217.961 L 290.600 289.400 289.523 291.659 C 288.569 293.660,286.683 295.930,284.637 297.537 C 284.261 297.833,282.888 298.508,281.585 299.037 L 279.216 300.000 202.023 300.000 C 125.389 300.000,124.815 299.994,122.769 299.188 C 118.107 297.350,114.843 293.751,113.770 289.266 C 112.976 285.943,112.966 150.097,113.760 146.778 C 114.664 143.000,117.583 139.214,120.639 137.855 C 121.497 137.474,122.560 136.947,123.000 136.686 C 123.513 136.381,126.737 136.137,132.000 136.005 L 140.200 135.800 140.502 129.000 C 141.222 112.762,149.070 106.950,167.206 109.224 M156.880 122.870 C 154.388 123.428,154.400 123.338,154.400 141.582 C 154.400 161.628,153.743 159.807,160.967 159.783 C 168.081 159.759,167.375 161.644,167.523 142.286 C 167.668 123.325,167.686 123.456,164.774 122.832 C 162.391 122.321,159.269 122.336,156.880 122.870 M239.195 122.747 C 238.642 122.886,237.742 123.318,237.195 123.707 L 236.200 124.415 236.087 140.948 C 235.983 156.307,236.025 157.543,236.687 158.360 C 238.467 160.557,247.523 160.568,249.300 158.375 C 250.470 156.932,250.362 125.768,249.182 124.268 C 247.889 122.625,242.778 121.846,239.195 122.747 M128.277 177.080 C 127.880 177.183,127.385 177.714,127.177 178.260 C 126.521 179.987,126.682 285.004,127.342 285.552 C 127.741 285.883,147.614 285.975,202.242 285.901 L 276.600 285.800 276.701 232.076 C 276.771 195.499,276.670 178.105,276.387 177.576 C 275.993 176.839,131.081 176.354,128.277 177.080 M246.528 201.573 C 248.043 202.149,253.200 208.209,253.200 209.414 C 253.200 210.214,247.722 215.929,226.700 237.062 C 212.125 251.713,199.686 264.224,199.058 264.862 C 194.943 269.044,195.743 269.674,164.263 237.466 C 160.425 233.539,160.323 232.837,163.153 229.857 C 164.227 228.726,165.560 227.297,166.115 226.683 C 167.210 225.469,168.826 224.881,170.400 225.121 C 171.078 225.224,175.140 229.052,183.000 236.995 C 192.852 246.951,194.721 248.669,195.400 248.396 C 195.840 248.219,206.638 237.624,219.394 224.852 C 232.151 212.081,242.951 201.558,243.394 201.470 C 244.870 201.175,245.540 201.197,246.528 201.573 " stroke="none" fill="#37474f" fill-rule="evenodd"></path></g></svg>