<svg id="svg" version="1.1" width="400" height="400" viewBox="0 0 400 400" xmlns="http://www.w3.org/2000/svg" xmlns:xlink="http://www.w3.org/1999/xlink" ><g id="svgg"><path id="path0" d="M208.800 122.414 C 204.514 122.833,198.154 123.892,197.315 124.325 C 196.922 124.528,195.880 124.820,195.000 124.973 C 193.565 125.222,189.258 126.762,187.628 127.609 C 187.283 127.789,186.280 128.288,185.400 128.718 C 181.694 130.529,175.398 134.335,174.814 135.118 C 174.696 135.275,173.880 135.932,173.000 136.577 C 172.120 137.222,169.765 139.426,167.766 141.475 L 164.131 145.200 159.366 144.947 C 151.519 144.529,145.039 145.771,139.862 148.684 C 138.575 149.408,137.438 150.000,137.335 150.000 C 137.114 150.000,134.443 151.970,133.665 152.706 C 133.371 152.984,132.512 153.684,131.756 154.261 C 130.321 155.355,125.728 161.067,124.890 162.800 C 124.624 163.350,124.236 164.070,124.028 164.400 C 123.481 165.268,122.247 168.168,121.010 171.493 C 119.978 174.271,119.868 174.405,118.267 174.833 C 117.350 175.079,116.150 175.530,115.600 175.837 C 115.050 176.144,114.150 176.576,113.600 176.798 C 112.688 177.165,110.904 178.288,106.461 181.290 C 96.085 188.301,89.011 202.798,89.036 217.000 C 89.048 224.026,89.035 223.943,91.241 231.136 C 93.949 239.970,100.585 248.572,109.095 254.278 C 111.683 256.014,117.959 259.200,118.790 259.200 C 119.014 259.200,120.234 259.559,121.503 259.998 C 125.892 261.517,131.924 261.814,153.995 261.600 C 176.554 261.381,175.871 261.465,174.228 259.118 C 173.395 257.929,173.368 253.260,174.187 252.176 C 176.166 249.560,176.508 249.600,152.307 249.600 C 129.280 249.600,127.511 249.467,122.028 247.323 C 115.460 244.754,109.489 239.870,105.987 234.202 C 100.218 224.863,99.577 212.961,104.284 202.580 C 107.175 196.204,118.703 186.019,123.048 186.002 C 123.294 186.001,124.623 185.640,126.000 185.200 C 127.377 184.760,129.025 184.400,129.661 184.400 C 131.101 184.400,131.261 184.018,132.400 177.872 C 132.882 175.271,133.528 172.661,133.836 172.072 C 134.143 171.482,134.396 170.861,134.398 170.691 C 134.408 169.435,139.032 163.840,141.658 161.907 C 142.176 161.525,143.078 160.850,143.663 160.407 C 144.248 159.963,144.878 159.599,145.063 159.598 C 145.248 159.596,145.940 159.311,146.600 158.963 C 150.614 156.850,157.347 156.380,162.800 157.832 C 169.544 159.629,168.456 160.021,172.879 154.200 C 175.339 150.962,179.367 146.830,181.200 145.665 C 181.750 145.315,182.920 144.470,183.800 143.788 C 185.486 142.480,190.938 139.200,191.426 139.200 C 191.584 139.200,192.452 138.864,193.356 138.453 C 203.035 134.057,216.827 133.314,226.800 136.652 C 227.790 136.983,229.168 137.399,229.861 137.576 C 237.320 139.481,254.800 153.439,254.800 157.489 C 254.800 157.625,255.055 158.021,255.367 158.369 C 256.137 159.225,259.600 166.061,259.600 166.723 C 259.600 167.014,259.818 167.646,260.084 168.126 C 260.946 169.681,261.992 174.096,262.550 178.534 C 263.240 184.018,263.188 183.967,268.638 184.371 C 273.698 184.747,275.759 185.320,281.600 187.977 C 288.513 191.121,294.307 198.061,297.649 207.200 C 299.169 211.356,299.074 222.477,297.481 226.922 C 294.036 236.534,287.290 243.680,278.307 247.231 C 272.818 249.401,270.269 249.597,247.533 249.599 C 223.347 249.600,224.076 249.513,225.832 252.193 C 226.700 253.518,226.658 257.640,225.761 259.158 C 224.257 261.704,223.349 261.600,247.087 261.597 C 275.296 261.592,277.041 261.381,286.400 256.827 C 296.303 252.009,303.638 243.930,308.398 232.600 C 315.101 216.644,309.421 194.247,295.857 183.147 C 291.953 179.952,290.652 179.024,288.800 178.109 C 288.250 177.837,287.530 177.443,287.200 177.233 C 285.206 175.963,280.371 174.141,277.400 173.540 C 275.281 173.112,273.600 171.898,273.600 170.797 C 273.600 168.191,268.805 156.666,265.664 151.725 C 257.414 138.743,244.184 128.657,230.600 124.995 C 229.500 124.698,227.970 124.283,227.200 124.072 C 222.731 122.847,213.173 121.986,208.800 122.414 M184.800 234.082 C 179.133 235.700,179.584 244.329,185.434 246.199 C 188.301 247.115,214.024 246.946,215.600 246.000 C 220.703 242.938,220.490 235.863,215.240 234.066 C 213.523 233.478,186.867 233.492,184.800 234.082 M184.755 249.742 C 179.714 251.340,179.472 258.713,184.366 261.592 C 186.332 262.748,213.289 262.675,215.565 261.506 C 220.870 258.782,220.521 251.401,215.007 249.706 C 212.852 249.044,186.860 249.075,184.755 249.742 M184.932 265.330 C 179.334 267.404,179.326 274.717,184.919 277.190 C 187.570 278.362,213.715 278.293,215.821 277.108 C 220.866 274.268,220.449 267.252,215.122 265.373 C 212.999 264.624,186.939 264.587,184.932 265.330 " stroke="none" fill="#ffffff" fill-rule="evenodd"></path><path id="path1" d="M0.000 200.000 L 0.000 400.000 200.000 400.000 L 400.000 400.000 400.000 200.000 L 400.000 0.000 200.000 0.000 L 0.000 0.000 0.000 200.000 M221.400 123.063 C 223.820 123.407,226.430 123.861,227.200 124.072 C 227.970 124.283,229.500 124.698,230.600 124.995 C 244.184 128.657,257.414 138.743,265.664 151.725 C 268.805 156.666,273.600 168.191,273.600 170.797 C 273.600 171.898,275.281 173.112,277.400 173.540 C 280.371 174.141,285.206 175.963,287.200 177.233 C 287.530 177.443,288.250 177.837,288.800 178.109 C 290.652 179.024,291.953 179.952,295.857 183.147 C 309.421 194.247,315.101 216.644,308.398 232.600 C 303.638 243.930,296.303 252.009,286.400 256.827 C 277.041 261.381,275.296 261.592,247.087 261.597 C 223.349 261.600,224.257 261.704,225.761 259.158 C 226.658 257.640,226.700 253.518,225.832 252.193 C 224.076 249.513,223.347 249.600,247.533 249.599 C 274.538 249.597,276.184 249.335,284.934 243.638 C 297.723 235.312,302.560 217.270,295.875 202.821 C 293.034 196.679,287.049 190.455,281.600 187.977 C 275.759 185.320,273.698 184.747,268.638 184.371 C 263.188 183.967,263.240 184.018,262.550 178.534 C 261.992 174.096,260.946 169.681,260.084 168.126 C 259.818 167.646,259.600 167.014,259.600 166.723 C 259.600 166.061,256.137 159.225,255.367 158.369 C 255.055 158.021,254.800 157.625,254.800 157.489 C 254.800 153.439,237.320 139.481,229.861 137.576 C 229.168 137.399,227.790 136.983,226.800 136.652 C 216.827 133.314,203.035 134.057,193.356 138.453 C 192.452 138.864,191.584 139.200,191.426 139.200 C 190.938 139.200,185.486 142.480,183.800 143.788 C 182.920 144.470,181.750 145.315,181.200 145.665 C 179.367 146.830,175.339 150.962,172.879 154.200 C 168.456 160.021,169.544 159.629,162.800 157.832 C 157.347 156.380,150.614 156.850,146.600 158.963 C 145.940 159.311,145.248 159.596,145.063 159.598 C 144.878 159.599,144.248 159.963,143.663 160.407 C 143.078 160.850,142.176 161.525,141.658 161.907 C 139.032 163.840,134.408 169.435,134.398 170.691 C 134.396 170.861,134.143 171.482,133.836 172.072 C 133.528 172.661,132.882 175.271,132.400 177.872 C 131.261 184.018,131.101 184.400,129.661 184.400 C 129.025 184.400,127.377 184.760,126.000 185.200 C 124.623 185.640,123.294 186.001,123.048 186.002 C 118.703 186.019,107.175 196.204,104.284 202.580 C 101.000 209.823,100.183 220.939,102.504 226.800 C 105.226 233.674,106.185 235.210,110.600 239.764 C 119.208 248.644,123.263 249.600,152.307 249.600 C 176.508 249.600,176.166 249.560,174.187 252.176 C 173.368 253.260,173.395 257.929,174.228 259.118 C 175.871 261.465,176.554 261.381,153.995 261.600 C 131.924 261.814,125.892 261.517,121.503 259.998 C 120.234 259.559,119.014 259.200,118.790 259.200 C 113.961 259.200,100.405 248.275,95.617 240.525 C 93.016 236.315,92.021 233.883,89.756 226.200 C 85.594 212.085,93.889 189.784,106.461 181.290 C 110.904 178.288,112.688 177.165,113.600 176.798 C 114.150 176.576,115.050 176.144,115.600 175.837 C 116.150 175.530,117.350 175.079,118.267 174.833 C 119.868 174.405,119.978 174.271,121.010 171.493 C 122.247 168.168,123.481 165.268,124.028 164.400 C 124.236 164.070,124.624 163.350,124.890 162.800 C 125.728 161.067,130.321 155.355,131.756 154.261 C 132.512 153.684,133.371 152.984,133.665 152.706 C 134.443 151.970,137.114 150.000,137.335 150.000 C 137.438 150.000,138.575 149.408,139.862 148.684 C 145.039 145.771,151.519 144.529,159.366 144.947 L 164.131 145.200 167.766 141.475 C 169.765 139.426,172.120 137.222,173.000 136.577 C 173.880 135.932,174.696 135.275,174.814 135.118 C 175.398 134.335,181.694 130.529,185.400 128.718 C 186.280 128.288,187.283 127.789,187.628 127.609 C 189.258 126.762,193.565 125.222,195.000 124.973 C 195.880 124.820,196.922 124.528,197.315 124.325 C 198.154 123.892,204.514 122.833,208.800 122.414 C 212.381 122.064,215.489 122.224,221.400 123.063 M215.240 234.066 C 220.490 235.863,220.703 242.938,215.600 246.000 C 214.024 246.946,188.301 247.115,185.434 246.199 C 179.584 244.329,179.133 235.700,184.800 234.082 C 186.867 233.492,213.523 233.478,215.240 234.066 M215.007 249.706 C 220.521 251.401,220.870 258.782,215.565 261.506 C 213.289 262.675,186.332 262.748,184.366 261.592 C 179.472 258.713,179.714 251.340,184.755 249.742 C 186.860 249.075,212.852 249.044,215.007 249.706 M215.122 265.373 C 220.449 267.252,220.866 274.268,215.821 277.108 C 213.715 278.293,187.570 278.362,184.919 277.190 C 179.326 274.717,179.334 267.404,184.932 265.330 C 186.939 264.587,212.999 264.624,215.122 265.373 " stroke="none" fill="#504374" fill-rule="evenodd"></path></g></svg>